<?xml version="1.0" encoding="UTF-8" standalone="no"?>
<!-- Generator: Adobe Illustrator 12.0.1, SVG Export Plug-In . SVG Version: 6.00 Build 51448)  -->
<svg
   xmlns:dc="http://purl.org/dc/elements/1.1/"
   xmlns:cc="http://web.resource.org/cc/"
   xmlns:rdf="http://www.w3.org/1999/02/22-rdf-syntax-ns#"
   xmlns:svg="http://www.w3.org/2000/svg"
   xmlns="http://www.w3.org/2000/svg"
   xmlns:xlink="http://www.w3.org/1999/xlink"
   xmlns:sodipodi="http://sodipodi.sourceforge.net/DTD/sodipodi-0.dtd"
   xmlns:inkscape="http://www.inkscape.org/namespaces/inkscape"
   version="1.1"
   id="Layer_1"
   width="542.419"
   height="408.256"
   viewBox="0 0 542.419 408.256"
   overflow="visible"
   enable-background="new 0 0 542.419 408.256"
   xml:space="preserve"
   sodipodi:version="0.32"
   inkscape:version="0.44"
   sodipodi:docname="johnny_automatic_country_scene.svg"
   sodipodi:docbase="C:\Documents and Settings\ryan\Desktop"><metadata
   id="metadata346"><rdf:RDF><cc:Work
       rdf:about=""><dc:format>image/svg+xml</dc:format><dc:type
         rdf:resource="http://purl.org/dc/dcmitype/StillImage" /></cc:Work></rdf:RDF></metadata><defs
   id="defs344"><linearGradient
   id="linearGradient8974"><stop
     style="stop-color:#fffad8;stop-opacity:1;"
     offset="0"
     id="stop8976" /><stop
     style="stop-color:#ffff74;stop-opacity:1;"
     offset="1"
     id="stop8978" /></linearGradient><linearGradient
   id="linearGradient8079"><stop
     style="stop-color:#5a3500;stop-opacity:1;"
     offset="0"
     id="stop8081" /><stop
     style="stop-color:#945700;stop-opacity:1;"
     offset="1"
     id="stop8083" /></linearGradient><linearGradient
   id="linearGradient7184"><stop
     style="stop-color:#00300b;stop-opacity:1;"
     offset="0"
     id="stop7186" /><stop
     style="stop-color:#006c1a;stop-opacity:1;"
     offset="1"
     id="stop7188" /></linearGradient><linearGradient
   id="linearGradient3428"><stop
     style="stop-color:#9cc5ec;stop-opacity:1;"
     offset="0"
     id="stop3430" /><stop
     style="stop-color:white;stop-opacity:0;"
     offset="1"
     id="stop3432" /></linearGradient><linearGradient
   inkscape:collect="always"
   xlink:href="#linearGradient3428"
   id="linearGradient3434"
   x1="279.25101"
   y1="226.58679"
   x2="277.09708"
   y2="25.166052"
   gradientUnits="userSpaceOnUse" />
	
	
	
	
	
	
	
	
	
	
	
	
	
	
	
	
	
	
	
	
	
	
	
	
<linearGradient
   inkscape:collect="always"
   xlink:href="#linearGradient7184"
   id="linearGradient7190"
   x1="384.00545"
   y1="205.87564"
   x2="506.76319"
   y2="205.87564"
   gradientUnits="userSpaceOnUse" /><linearGradient
   inkscape:collect="always"
   xlink:href="#linearGradient8079"
   id="linearGradient8085"
   x1="297.629"
   y1="323.66313"
   x2="468.929"
   y2="323.66313"
   gradientUnits="userSpaceOnUse" /><radialGradient
   inkscape:collect="always"
   xlink:href="#linearGradient8974"
   id="radialGradient8980"
   cx="156.779"
   cy="338.24799"
   fx="156.779"
   fy="338.24799"
   r="26.15"
   gradientTransform="matrix(1,0,0,0.608107,0,132.5569)"
   gradientUnits="userSpaceOnUse" /></defs><sodipodi:namedview
   inkscape:window-height="968"
   inkscape:window-width="1280"
   inkscape:pageshadow="2"
   inkscape:pageopacity="0.0"
   guidetolerance="10.0"
   gridtolerance="10.0"
   objecttolerance="10.0"
   borderopacity="1.0"
   bordercolor="#666666"
   pagecolor="#ffffff"
   id="base"
   inkscape:zoom="0.92344017"
   inkscape:cx="123.43908"
   inkscape:cy="119.98766"
   inkscape:window-x="-4"
   inkscape:window-y="-4"
   inkscape:current-layer="Layer_1" />
<path
   clip-rule="evenodd"
   d="M523.277,261.331c0,0,21.667-106.665-5-133.332  s-15.834-35.834-59.167-64.167s-141.666-67.5-197.499-57.5s-157.5,48.333-157.5,48.333l-53.333,46.667l-34.167,65.833  c0,0-16.667,53.333-7.5,70.833s26.667,56.666,26.667,56.666L523.277,261.331z"
   id="path3"
   fill-rule="evenodd"
   fill="#D6E7F7"
   style="fill-opacity:1.0;fill:url(#linearGradient3434)" /><path
   style="fill-opacity:1.0;fill:url(#linearGradient3434)"
   d="M 281.34375 4.75 C 274.34774 4.7458993 267.73173 5.25 261.625 6.34375 C 252.14294 8.0420411 241.33319 10.558343 229.9375 13.5625 L 312.40625 10.28125 L 271.84375 278.53125 L 273.875 278.40625 L 376.125 24.5 C 343.91065 13.067514 309.53713 4.7665271 281.34375 4.75 z M 218.1875 16.78125 C 200.35818 21.800078 181.72195 27.683079 164.78125 33.3125 L 267.96875 278.78125 L 269.3125 278.6875 L 218.1875 16.78125 z M 394 31.25 L 436.9375 52.53125 L 321.4375 275.125 L 339.15625 273.90625 L 472.53125 73.3125 C 468.72811 70.396539 464.3352 67.250408 459.125 63.84375 C 443.22283 53.446217 419.8975 41.59998 394 31.25 z M 145.1875 39.96875 C 121.26459 48.228539 104.125 54.65625 104.125 54.65625 L 50.78125 101.34375 L 30.8125 139.84375 L 256.1875 279.59375 L 261.28125 279.25 L 89.34375 69.3125 L 145.1875 39.96875 z M 473.3125 73.90625 L 520.34375 134.28125 L 409.125 269.125 L 523.28125 261.34375 C 523.28132 261.34376 544.94825 154.667 518.28125 128 C 495.04078 104.75947 500.26332 94.83173 473.3125 73.90625 z M 20.03125 160.59375 L 16.625 167.15625 C 16.625 167.15625 -0.042000535 220.5 9.125 238 C 18.292 255.50001 35.78125 294.65625 35.78125 294.65625 L 194.40625 283.8125 L 11.375 188.96875 L 20.03125 160.59375 z "
   transform="translate(0,-3.592638e-6)"
   id="path3436" />
<path
   fill-rule="evenodd"
   clip-rule="evenodd"
   fill="#FFFAC4"
   d="M169.102,273.456c0,0,0.924-3.51-0.924-8.685  s-3.327-6.469-3.327-6.469s2.218-0.553-3.511-2.217s-16.817-4.251-16.817-4.251l-2.218,1.479l-6.468,7.392l-6.837-11.827  c0,0-1.479-2.402-4.066-2.402s-24.023-2.032-24.023-2.032L97.4,247.77l4.065,26.611c0,0,29.753,4.989,30.307,4.989  S169.102,273.456,169.102,273.456z"
   id="path5" />
<path
   clip-rule="evenodd"
   d="M528.277,248.831c0,0-25.709-6.339-86.542,1.994  s-69.292,13.006-69.292,13.006l-72.5,0.833l-39.165,10l-15.833-1.666l-17.268,5.119c0,0-7.804-4.174-15.288,5.089  c-0.271,0.336-31.26,0.336-37.185-0.436s-53.879-2.86-53.879-2.86l-61.984-0.954l-25.748,0.477c0,0,59.266,125.448,237.448,122.062  C471.774,397.681,528.277,248.831,528.277,248.831z"
   id="path7"
   fill-rule="evenodd"
   fill="#B4CC95" />
<path
   style="fill:#004812;fill-rule:evenodd;stroke:#1c1c1c;stroke-width:1.29999995;stroke-miterlimit:4;stroke-dasharray:none;stroke-opacity:1"
   id="path11"
   d="M 119.279,336 C 121.072,335.872 121.388,337.224 123.279,337 C 122.273,339.075 118.857,339.741 119.279,336 z "
   clip-rule="evenodd" /><path
   style="fill:#8bb05a;fill-opacity:1;fill-rule:evenodd;stroke:none;stroke-width:1px;stroke-linecap:butt;stroke-linejoin:miter;stroke-opacity:1"
   d="M 33.028669,280.47296 L 68.223152,331.91105 L 120.74415,363.85681 L 197.08911,371.97861 L 344.90594,372.52007 L 421.79235,356.27646 L 469.44026,335.15977 L 499.76166,299.42383 L 515.46382,277.22423 L 508.96638,272.89261 L 456.98683,277.76569 L 419.62653,282.09732 L 368.7299,290.76057 L 324.3307,292.38494 L 311.65252,293.77922 L 290.40349,291.48202 L 276.62033,289.18483 L 262.4543,288.80197 L 252.69123,287.46194 L 236.61088,287.07907 L 220.72196,285.93047 L 216.70188,284.20758 L 212.29892,283.05898 L 203.11015,283.05898 L 188.36983,283.63328 L 178.22389,282.86755 L 164.44073,281.14466 L 151.80617,277.69887 L 59.918452,276.93314 L 49.38965,278.08173 L 35.223627,278.4646 L 33.028669,280.47296 z "
   id="path9869" /><path
   style="fill:#004812;fill-rule:evenodd;stroke:#1c1c1c;stroke-width:1.29999995;stroke-miterlimit:4;stroke-dasharray:none;stroke-opacity:1"
   id="path13"
   d="M 280.279,5.6843419e-014 C 280.477,5.6843419e-014 281.273,5.6843419e-014 281.279,5.6843419e-014 C 340.748,0.065 388.344,11.345 428.279,34 C 482.765,64.911 518.35,95.843 536.279,154 C 547.554,190.578 542.575,236.736 527.279,268 C 508.368,306.647 478.29,339.122 439.279,362 C 429.829,367.541 419.191,371.772 408.279,377 C 397.708,382.063 387.039,386.142 375.279,390 C 352.198,397.57 326.332,404.854 301.279,407 C 251.571,411.256 196.049,404.716 149.279,387 C 138.851,383.05 128.949,377.197 118.279,372 C 109.439,367.694 100.321,362.812 92.279,358 C 91.285,357.405 89.521,357.747 88.279,357 C 70.042,346.026 51.758,330.26 39.279,315 C 15.976,286.503 -9.115,230.772 3.279,175 C 3.783,172.729 5.581,170.749 6.279,168 C 6.814,165.891 6.284,162.974 7.279,160 C 10.355,150.803 13.831,147.179 19.279,137 C 23.327,129.436 27.759,120.511 31.279,115 C 42.614,97.247 59.123,80.229 75.279,67 C 108.083,40.138 149.026,19.167 199.279,8 C 225.444,2.185 249.305,0.034 280.279,5.6843419e-014 z M 515.779,247 L 515.279,246 C 515.611,246 515.945,246 516.279,246 C 525.872,233.873 527.901,202.847 526.279,183 C 525.662,175.453 523.052,169.52 521.279,163 C 513.824,135.603 500.489,111.21 482.279,93 C 479.315,90.036 475.904,87.217 472.279,84 C 464.33,76.947 453.998,70.168 443.279,63 C 435.627,57.883 428.157,51.341 420.279,47 C 412.267,42.585 401.295,39.575 391.279,36 C 374.855,30.138 358.799,24.21 340.279,21 C 243.698,4.259 151.745,29.608 95.279,72 C 90.502,75.586 85.42,78.582 81.279,82 C 49.708,108.062 25.477,147.901 17.279,187 C 13.288,206.033 17.213,227.878 21.279,243 C 24.539,255.126 28.063,270.895 36.279,277 L 35.779,278.5 L 37.279,279 C 37.278,288.781 45.148,295.713 50.279,302 C 54.58,307.27 58.911,313.009 64.279,318 C 68.591,322.01 74.632,324.198 78.279,330 C 93.251,340.361 107.956,350.989 125.279,359 C 127.099,355.819 131.179,354.899 134.279,353 L 135.779,353.5 L 136.279,352 C 137.089,352.189 137.276,353.003 138.279,353 C 139.139,352.192 138.873,350.261 140.279,350 L 140.779,351.5 L 142.279,351 C 142.279,351.333 142.279,351.666 142.279,352 C 146.05,352.583 157.734,353.904 160.279,348 C 157.104,342.452 145.96,346.997 142.279,350 L 141.279,349.5 L 140.279,349 C 139.469,348.81 139.282,347.996 138.279,348 C 138.251,348.972 137.055,348.775 136.279,349 L 134.779,348.5 L 134.279,350 C 133.469,349.81 133.282,348.996 132.279,349 L 132.779,347.5 L 131.279,347 C 133.359,343.368 132.456,340.701 132.279,339 C 133.279,339 134.279,338.999 135.279,339 C 135.279,338.666 135.279,338.333 135.279,338 L 136.779,338.5 L 136.279,337 C 138.571,336.624 137.612,333 139.279,332 C 145.321,332.376 149.404,330.791 152.279,328 C 153.272,325.225 146.597,325.171 150.279,323 C 153.748,322.863 151.88,328.065 155.279,328 C 157.333,327.055 156.127,322.848 159.279,323 L 158.779,324.5 L 160.279,325 C 160.97,327.496 162.946,323.144 165.279,324 C 161.017,327.921 167.799,326.693 165.279,332 C 168.747,331.197 169.123,333.489 172.279,333 L 171.779,334.5 L 173.279,334 C 173.306,334.972 174.503,334.775 175.279,335 L 174.779,336.5 L 176.279,336 C 177.646,344.366 167.687,341.407 167.279,348 C 167.946,348 168.612,348 169.279,348 L 168.779,349.5 L 170.279,349 C 170.279,349.666 170.279,350.333 170.279,351 C 172.835,352.25 174.648,351.534 178.279,350 C 178.826,348.547 177.11,344.831 179.279,345 L 180.446,346.5 L 182.279,346 C 182.279,347.666 182.279,349.333 182.279,351 C 186.078,350.799 189.394,350.114 192.279,349 C 192.983,345.162 196.908,334.019 190.279,331 C 189.108,332.495 189.035,335.09 187.279,336 L 186.112,334.5 L 184.279,335 C 183.358,327.172 184.844,326.283 185.279,319 C 183.946,319 182.612,319 181.279,319 L 181.779,317.5 L 180.279,318 C 180.807,314.527 182.987,312.708 184.279,310 C 186.771,310.841 189.636,311.309 193.279,311 C 195.727,308.781 196.846,305.233 202.279,306 C 205.584,310.76 200.488,314.859 203.279,322 L 201.779,321.5 L 201.279,323 C 200.474,322.471 199.655,321.956 198.279,322 C 197.049,331.751 200.174,337.714 197.279,348 C 200.87,347.591 205.026,347.746 206.279,345 L 207.279,345.5 L 208.279,346 C 228.458,341.293 254.268,344.239 257.279,324 C 257.54,322.24 256.247,319.975 256.279,318 C 256.404,310.246 258.85,297.424 257.279,289 L 257.779,288 L 257.279,287 C 258.438,283.745 259.156,276.117 257.279,273 L 256.779,272 L 256.279,271 C 257.089,270.81 257.276,269.996 258.279,270 C 257.661,262.715 260.022,258.409 259.279,251 C 258.474,250.471 257.655,249.956 256.279,250 C 255.419,250.806 255.684,252.738 254.279,253 L 253.112,251.5 L 251.279,252 C 251.279,250.666 251.279,249.333 251.279,248 C 238.417,246.472 240.699,260.087 230.279,261 C 226.725,260.887 226.644,257.301 222.279,258 C 219.712,260.766 220.635,267.022 214.279,266 L 213.779,264.5 L 212.279,265 C 212.364,263.58 212.444,262.168 211.279,262 C 206.881,265.269 198.822,264.876 195.279,269 L 194.112,267.5 L 192.279,268 C 188.191,262.838 197.624,257.105 205.279,260 C 212.825,254.585 222.986,254.729 230.279,250 C 233.377,247.99 235.68,244.209 238.279,242 C 240.217,240.351 244.976,240.511 243.279,236 C 240.263,233.484 237.842,237.968 233.279,237 L 233.779,235.166 L 232.279,234 C 234.603,231.657 238.413,230.801 237.279,225 C 230.877,227.228 230.923,223.58 226.279,222 L 226.779,220.166 L 225.279,219 C 231.837,215.204 227.167,206.347 225.279,200 C 219.943,199.997 219.148,204.536 217.279,208 L 216.779,206.5 L 215.279,206 C 214.279,206 213.279,206 212.279,206 L 212.779,204.5 L 211.279,204 C 211.588,201.642 214.752,202.139 214.279,199 C 209.139,198.472 207.452,194.493 201.279,195 C 197.142,195.863 198.913,202.634 194.279,203 C 193.029,196.774 193.026,190.623 188.279,186 L 189.779,184.833 L 189.279,183 C 195.082,182.863 195.469,188.143 200.279,189 C 216.135,189.551 242.73,196.728 247.279,181 C 242.206,180.594 241.438,184.492 238.279,186 C 236.076,183.354 233.984,184.399 230.279,185 C 228.001,181.611 225.03,178.915 221.279,177 C 221.268,174.343 221.656,171.289 220.279,170 L 221.779,168.833 L 221.279,167 C 230.186,166.241 242.786,169.174 247.279,164 C 246.386,160.183 248.911,157.617 247.279,156 C 241.87,154.924 241.323,158.711 236.279,158 L 236.779,156.167 L 235.279,155 C 238.639,152.559 234.962,147.195 231.279,146 L 231.779,144.167 L 230.279,143 C 232.369,141.09 235.054,139.775 238.279,139 L 237.779,140.5 L 239.279,141 C 239.279,141.667 239.279,142.333 239.279,143 C 242.518,146.182 254.313,138.923 246.279,137 L 246.779,135.5 L 245.279,135 C 248.121,132.842 252.946,132.667 255.279,130 C 254.744,126.131 257.064,125.118 256.279,121 C 247.358,124.512 242.224,128.331 232.279,129 L 232.779,127.167 L 231.279,126 C 232.825,124.546 232.159,120.88 232.279,118 C 229.098,117.847 227.88,115.732 224.279,116 C 222.451,120.755 208.577,122.269 212.279,114 L 213.779,112.833 L 213.279,111 C 217.868,111.922 218.11,108.498 222.279,109 C 231.404,115.636 251.253,115.576 258.279,107 C 254.86,103.009 251.714,103.62 245.279,104 C 245.89,103.067 247.606,100.311 244.279,101 C 242.664,100.718 242.557,101.945 241.279,102 L 240.779,100.5 L 239.279,101 C 238.904,98.708 235.279,99.667 234.279,98 L 235.779,96.833 L 235.279,95 C 236.612,95 237.946,95 239.279,95 C 239.632,93.687 241.039,93.427 241.279,92 L 242.279,92.5 L 243.279,93 C 248.546,92.732 250.063,96.215 256.279,95 C 259.49,91.611 258.614,83.452 252.279,84 L 251.112,82.5 L 249.279,83 C 250.338,79.274 247.174,79.772 246.279,78 L 247.779,76.833 L 247.279,75 C 252.539,72.119 256.547,77.881 261.279,75 C 260.005,68.555 252.685,70.11 254.279,63 C 251.973,66.499 244.712,66.729 243.279,62 L 244.636,60.786 L 244.279,59 C 246.688,58.59 246.452,60.826 249.279,60 C 250.637,54.748 254.326,53.363 257.279,52 C 257.462,46.02 255.854,39.068 261.279,36 L 262.446,37.5 L 264.279,37 C 264.292,38.987 267.007,38.271 266.279,41 C 267.612,41 268.946,41 270.279,41 L 269.779,42.833 L 271.279,44 C 271.521,48.909 264.648,46.702 266.279,53 C 268.18,55.644 273.142,49.208 274.279,54 C 271.558,57.946 266.535,59.589 266.279,66 C 271.583,67.072 280.277,63.502 284.279,60 C 284.046,69.796 275.434,74.859 267.279,71 C 266.158,74.149 267.189,73.264 267.279,77 C 282.418,82.692 295.805,71.636 307.279,65 C 307.021,71.41 304.746,75.8 301.279,79 C 298.175,79.104 298.425,75.854 294.279,77 C 293.246,82.699 298.429,82.182 298.279,87 C 293.406,86.872 291.321,83.957 287.279,83 C 284.023,88.411 277.631,90.685 271.279,93 C 271.279,94.667 271.279,96.333 271.279,98 C 288.033,102.574 298.67,92.856 307.279,86 C 306.197,90.057 307.669,91.486 307.279,97 C 304.558,98.612 299.253,97.641 297.279,100 C 300.669,115.183 282.913,113.866 270.279,111 C 276.842,125.82 300.713,118.94 311.279,114 L 310.779,115.5 L 312.279,116 C 311.452,118.826 313.688,118.59 313.279,121 L 311.779,121.5 L 312.279,123 C 310.279,123 308.279,123 306.279,123 C 304.103,126.415 309.867,128.998 309.279,134 C 306.564,133.38 301.342,135.27 300.279,133 C 300.159,130.119 300.825,126.454 299.279,125 C 295.005,128.059 290.335,130.722 284.279,132 C 281.502,130.443 281.876,125.735 277.279,126 C 276.44,127.161 275.96,128.681 276.279,131 L 274.779,130.5 L 274.279,132 C 262.329,134.04 269.738,153.277 278.279,153 C 278.472,145.139 275.242,140.703 274.279,134 L 276.065,134.357 L 277.279,133 C 280.099,137.179 282.832,141.446 288.279,143 C 293.072,140.654 305.332,136.015 309.279,142 L 307.779,143.167 L 308.279,145 C 302.782,144.837 300.981,148.369 299.279,152 C 297.523,149.088 293.753,148.192 289.279,148 C 286.128,151.516 280.58,152.634 281.279,160 C 288.436,162.183 293.348,165.257 301.279,162 L 300.779,163.833 L 302.279,165 C 298.401,168.79 289.908,167.962 289.279,175 C 286.114,174.164 286.133,170.146 281.279,171 C 281.702,173.09 280.593,173.647 280.279,175 L 278.779,174.5 L 277.279,174 C 270.704,175.575 273.483,167.795 269.279,167 C 267.602,170.457 270.096,173.625 269.279,179 C 273.008,179.604 273.349,183.596 277.279,184 C 278.055,183.11 278.353,181.742 278.279,180 L 280.112,180.5 L 281.279,179 C 283.035,179.91 283.108,182.504 284.279,184 C 295.59,189.104 304.468,180.375 315.279,179 L 314.779,180.833 L 316.279,182 C 315.849,183.904 314.125,184.512 314.279,187 L 312.445,186.5 L 311.279,188 C 304.878,182.861 299.391,190.774 297.279,196 C 290.411,197.534 292.54,190.072 287.279,190 C 281.672,197.868 288.007,208.605 297.279,208 L 296.779,209.833 L 298.279,211 C 298.279,211.333 298.279,211.666 298.279,212 L 296.445,211.5 L 295.279,213 C 291.175,210.769 284.755,210.856 278.279,211 C 275.943,211.997 277.064,216.452 275.279,218 C 271.053,216.225 272.694,208.584 267.279,208 C 262.831,225.167 267.452,248.643 267.279,268 C 268.441,267.837 269.058,268.22 269.279,269 L 269.779,270 L 270.279,271 C 269.469,271.189 269.282,272.003 268.279,272 C 266.675,275.397 266.675,284.602 268.279,288 L 268.279,289 L 269.279,289 C 265.3,302.02 267.088,323.784 270.279,336 C 282.091,336.9 287.361,335.95 298.279,335 C 298.721,329.442 306.667,331.388 308.279,327 C 307.116,325.162 302.971,326.307 304.279,322 C 304.324,318.712 308.553,319.607 308.279,316 C 310.517,312.932 306.435,304.446 312.279,303 C 318.006,303.272 314.155,313.123 315.279,318 C 330.027,317.414 347.739,319.793 358.279,315 C 360.99,316.24 360.767,318.859 364.279,317 C 364.279,316.666 364.279,316.333 364.279,316 L 365.779,316.5 L 367.279,317 C 371.078,317.91 368.01,321.019 368.279,324 L 368.779,325 L 369.279,326 C 368.468,326.189 368.282,327.003 367.279,327 C 367.279,328 367.278,329 367.279,330 C 370.827,330.582 376.833,332.468 379.279,331 C 379.279,329.666 379.279,328.333 379.279,327 C 375.509,327.769 374.499,325.779 371.279,326 L 371.779,324.5 L 370.279,324 C 371.995,321.444 369.133,320.499 371.279,319 C 379.178,321.232 379.084,315.472 383.279,314 C 383.915,322.606 404.12,319.207 409.279,317 C 409.954,312.675 406.998,304.719 413.279,306 C 416.141,308.137 411.891,317.387 417.279,317 C 421.516,316.903 416.766,307.821 422.279,309 C 423.825,310.453 423.159,314.119 423.279,317 L 421.779,318.166 L 422.279,320 C 420.578,319.632 420.391,320.779 420.279,322 C 421.989,322.043 422.869,321.256 423.279,320 L 424.779,320.5 L 425.279,319 C 439.435,319.509 455.728,317.883 468.279,320 C 482.497,306.218 495.244,290.965 505.279,273 L 506.779,272.5 L 506.279,271 C 506.611,271 506.945,271 507.279,271 C 510.338,263.392 515.404,257.792 516.279,248 L 515.779,247 z M 269.279,105 C 271.318,105.558 271.24,108.008 273.279,106 C 274.031,102.589 269.458,102.099 269.279,105 z M 251.279,170 C 254.335,170.722 254.923,168.978 257.279,169 C 257.074,165.871 257.953,161.659 256.279,160 C 255.279,160 254.279,160 253.279,160 C 252.605,163.184 249.794,167.786 251.279,170 z M 238.279,209 C 247.134,215.115 260.904,201.189 253.279,191 C 252.792,201.513 242.505,202.226 238.279,209 z M 249.279,238 C 254.551,238.272 254.071,232.792 255.279,229 C 255.058,228.221 254.442,227.837 253.279,228 C 251.465,230.853 248.381,232.436 249.279,238 z M 338.279,323 C 331.557,322.963 324.115,323.027 318.279,323 C 317.275,322.996 317.089,323.81 316.279,324 C 316.235,325.376 316.75,326.195 317.279,327 C 331.362,325.519 345.29,330.876 354.279,326 C 352.416,320.802 344.467,323.033 338.279,323 z M 360.279,328 C 360.945,328 361.612,328 362.279,328 C 362.334,326.721 363.56,326.614 363.279,325 C 362.279,325 361.279,325 360.279,325 C 360.278,326 360.279,327 360.279,328 z M 386.279,328 C 386.279,328.999 386.279,330 386.279,331 C 389.468,332.422 394.676,332.334 399.279,332 C 402.872,331.738 408.518,331.706 409.279,329 C 405.545,325.229 391.622,326.889 386.279,328 z M 423.279,328 C 423.279,328.999 423.279,330 423.279,331 C 429.241,334.704 438.479,335.132 445.279,338 C 448.39,333.444 456.106,333.494 457.279,327 C 444.301,327.47 433.044,326.12 423.279,328 z M 415.279,329 C 415.279,329.666 415.279,330.333 415.279,331 C 415.888,331.056 416.463,331.148 416.279,332 C 416.945,332 417.612,332 418.279,332 C 418.335,331.39 418.427,330.815 419.279,331 C 419.279,330.333 419.279,329.666 419.279,329 C 418.669,328.942 418.094,328.85 418.279,328 C 417.612,328 416.945,328 416.279,328 C 416.221,328.609 416.128,329.184 415.279,329 z M 342.279,332 C 338.337,331.876 333.701,331.79 330.279,332 C 325.424,332.297 317.706,331.694 316.279,336 C 320.511,339.452 328.838,338.071 335.279,338 C 341.823,337.927 351.022,339.53 353.279,335 C 352.793,330.054 346.034,332.117 342.279,332 z M 359.279,338 C 359.945,338 360.612,338 361.279,338 C 361.279,337.333 361.279,336.666 361.279,336 C 360.612,336 359.945,336 359.279,336 C 359.279,336.666 359.279,337.333 359.279,338 z M 378.279,339 C 376.339,335.939 370.968,336.31 366.279,336 C 364.865,342.28 378.219,343.305 378.279,339 z M 386.279,340 C 386.391,341.22 386.578,342.367 388.279,342 C 389.903,341.591 403.269,344.349 403.279,339 C 397.778,339.499 390.176,337.897 386.279,340 z "
   clip-rule="evenodd"
   sodipodi:nodetypes="cscccccccssssccssscccccccscsssssccccscccssccccccccccccccccccccccccccccccccccccccccccccccccccccccccccccccccccccccccscccccccccccccccccccccccssccccccccccccccccccccccccccccccccccccccccccccccccccccccccccccccccccccccccccccccccccccccccccccccccccccccccccccccccccccccccccccccccccccccccccccccccccccccccccccccccccccccccccccccccccccccccccccccccccccccccccccccccccccccccccccccccccccccscccccccccccscccccccccccccccccscscccccccccccccc" /><path
   style="fill:#004812;fill-rule:evenodd;stroke:#1c1c1c;stroke-width:1.29999995;stroke-miterlimit:4;stroke-dasharray:none;stroke-opacity:1"
   id="path15"
   d="M 423.279,174 C 421.997,174.5 418.517,177.75 418.279,176 C 420.318,175.706 420.24,173.294 422.279,173 L 422.279,174 L 423.279,174 z "
   clip-rule="evenodd" /><path
   style="fill:url(#linearGradient7190);fill-rule:evenodd;stroke:#1c1c1c;stroke-width:1.29999995;stroke-miterlimit:4;stroke-dasharray:none;stroke-opacity:1;fill-opacity:1.0"
   id="path17"
   d="M 421.61319,170.87564 L 420.11319,171.37564 C 420.66319,169.15864 418.20319,169.95164 418.11319,168.37564 C 425.34819,167.72864 420.16019,160.78064 424.11319,157.37564 L 425.11319,157.87564 L 426.11319,157.37564 C 426.39819,160.08964 429.77219,159.71564 430.11319,162.37564 C 429.43519,156.58664 443.63219,160.01064 447.11319,155.37564 L 448.27919,156.87564 L 450.11319,156.37564 C 453.89719,167.86064 474.89019,168.43464 486.11319,166.37564 C 485.67019,170.59964 480.62419,170.21964 479.11319,173.37564 C 474.27119,169.58764 473.51419,174.03664 469.11319,175.37564 C 467.86419,172.95764 465.01319,172.14064 462.11319,171.37564 C 461.52219,175.63264 462.83219,177.98964 463.11319,181.37564 C 460.03519,182.12064 461.19119,178.63064 458.11319,179.37564 C 457.66819,181.93064 456.71019,183.97264 455.11319,185.37564 C 454.83419,183.05764 452.44119,183.07664 451.11319,184.37564 C 450.65319,201.50064 471.22719,197.59464 485.11319,200.37564 L 483.61319,201.54264 L 484.11319,203.37564 C 481.56419,207.52064 478.27919,202.76164 476.11319,204.37564 C 476.11319,205.37564 476.11219,206.37564 476.11319,207.37564 L 474.27919,206.87564 L 473.11319,208.37564 C 468.26419,208.22464 468.51019,202.97764 464.11319,202.37564 C 463.07319,208.66664 457.55519,205.24964 453.11319,204.37564 C 447.13319,214.01364 456.94519,220.72064 468.11319,219.37564 C 468.09919,221.36164 465.38419,220.64664 466.11319,223.37564 C 480.42119,221.98764 494.07319,209.94864 506.11319,220.37564 C 501.90619,223.39364 500.16919,222.79264 493.11319,222.37564 C 492.60019,228.55464 499.46519,227.35564 503.11319,229.37564 C 501.13919,230.06864 503.35919,234.95464 501.11319,235.37564 C 496.05819,235.87064 494.28419,231.23664 489.11319,229.37564 C 487.81219,231.85764 492.04719,233.52464 489.11319,234.37564 C 484.15819,235.82264 476.04819,232.97464 477.11319,242.37564 C 477.91919,243.23464 479.85119,242.96964 480.11319,244.37564 L 478.61319,245.54164 L 479.11319,247.37564 C 450.15919,247.75564 424.66119,251.58964 400.11319,256.37564 L 400.46919,254.58964 L 399.11319,253.37564 C 399.11319,252.70864 399.11319,252.04164 399.11319,251.37564 C 393.58919,251.11564 382.24319,248.37464 385.11319,242.37564 C 394.16719,245.91664 416.18019,249.32064 423.11319,238.37564 C 422.70919,236.44564 418.53319,238.28764 420.11319,234.37564 C 419.44619,234.37564 418.77919,234.37564 418.11319,234.37564 L 418.61219,232.87564 L 417.11319,232.37564 C 419.41419,228.67564 424.40319,227.66564 426.11319,223.37564 L 427.27919,224.87564 L 429.11319,224.37564 C 431.66719,226.48764 431.90019,230.92164 436.11319,231.37564 C 443.39719,225.92564 447.20319,211.89164 447.11319,202.37564 C 442.95719,200.32664 438.79619,210.33464 434.11319,205.37564 L 433.11319,204.87564 L 432.11319,205.37564 C 433.55019,196.14564 443.29719,195.22664 443.11319,184.37564 C 436.83719,188.24564 431.08719,186.83364 428.11319,194.37564 L 426.61319,193.87564 L 426.11319,195.37564 C 421.70219,195.78664 420.38319,193.10564 418.11319,191.37564 C 417.46319,193.07264 415.81319,192.00064 416.11319,190.37564 L 417.61319,189.87564 L 417.11319,188.37564 C 419.18719,186.45064 422.92819,186.19164 424.11319,183.37564 C 421.55719,182.93064 419.51519,181.97364 418.11319,180.37564 C 421.85019,180.44664 423.83919,178.76864 425.11319,176.37564 L 426.61319,176.87564 L 428.11319,177.37564 C 435.81619,178.59864 445.70719,173.74464 446.11319,164.37564 C 442.58019,162.87564 438.81819,169.72264 435.11319,171.37564 C 433.22119,170.26664 431.60719,168.88064 429.11319,168.37564 C 428.27319,169.53664 427.79419,171.05664 428.11319,173.37564 L 426.27919,172.87564 L 425.11319,174.37564 C 423.12619,174.36264 423.84119,171.64664 421.11319,172.37564 L 421.61319,170.87564 z "
   clip-rule="evenodd" /><path
   style="fill:#004812;fill-rule:evenodd;stroke:#1c1c1c;stroke-width:1.29999995;stroke-miterlimit:4;stroke-dasharray:none;stroke-opacity:1"
   id="path19"
   d="M 449.779,138.5 L 448.279,139 C 447.049,138.563 446.224,137.72 446.279,136 C 447.591,135.646 447.851,134.239 449.279,134 L 450.779,134.5 L 451.279,133 C 453.399,134.793 454.362,139.873 450.279,140 L 449.779,138.5 z "
   clip-rule="evenodd" /><path
   style="fill:#004812;fill-rule:evenodd;stroke:#1c1c1c;stroke-width:1.29999995;stroke-miterlimit:4;stroke-dasharray:none;stroke-opacity:1"
   id="path21"
   d="M 449.779,120.5 L 449.279,122 C 447.695,121.917 445.465,122.48 445.279,121 C 447.961,120.015 446.318,114.706 448.279,113 L 448.779,114.5 L 450.279,114 C 450.131,117.073 453.797,118.497 451.279,121 L 449.779,120.5 z "
   clip-rule="evenodd" /><path
   style="fill:#002b54;fill-rule:evenodd;stroke:#1c1c1c;stroke-width:1.29999995;stroke-miterlimit:4;stroke-dasharray:none;stroke-opacity:1"
   id="path23"
   d="M 56.779,277.5 L 55.279,277 C 58.515,269.728 74.241,276.548 80.279,273 C 80.279,272 80.279,271 80.279,270 L 81.779,270.5 L 82.279,269 C 83.279,269 84.279,269 85.279,269 C 85.301,266.644 83.556,266.056 84.279,263 C 89.994,256.715 91.942,246.662 99.279,242 C 99.095,242.85 99.669,242.942 100.279,243 L 99.779,244.5 L 101.279,245 C 101.623,252.321 106.145,255.467 107.279,262 C 116.268,262.459 128.392,264.73 135.279,264 C 136.105,261.173 133.869,261.409 134.279,259 L 135.779,259.5 L 135.279,258 C 139.862,257.249 138.919,250.974 144.279,251 L 143.779,252.5 L 145.279,253 C 143.099,255.091 145.779,255.854 145.279,259 L 143.446,258.5 L 142.279,260 C 141.612,260 140.946,260 140.279,260 C 140.279,260.666 140.279,261.333 140.279,262 C 141.442,262.162 142.058,261.778 142.279,261 L 144.112,261.5 L 145.279,260 C 147.218,261.394 146.77,265.175 148.279,267 C 155.143,267.961 162.09,273.64 169.279,271 L 169.279,272 L 170.279,272 C 171.251,272.027 171.055,273.224 171.279,274 C 168.186,273.906 168.299,277.02 168.279,280 L 167.779,281.5 L 169.279,282 C 129.749,281.608 96.559,279.254 56.279,279 L 56.779,277.5 z M 111.279,273 C 114.441,274.476 116.088,267.254 112.279,268 C 111.439,269.16 110.959,270.681 111.279,273 z M 124.279,274 C 125.865,272.506 125.741,268.299 122.279,269 C 120.135,271.051 121.758,273.759 124.279,274 z "
   clip-rule="evenodd" /><path
   style="fill:#8e0c3a;fill-rule:evenodd;stroke:#1c1c1c;stroke-width:1.29999995;stroke-miterlimit:4;stroke-dasharray:none;stroke-opacity:1"
   id="path25"
   d="M 119.779,245.5 L 118.279,245 C 119.463,242.518 119.338,238.725 124.279,240 C 124.147,242.465 124.127,244.817 125.279,246 L 124.279,246 L 124.279,247 C 122.612,247 120.946,247 119.279,247 L 119.779,245.5 z "
   clip-rule="evenodd" /><path
   style="fill:#8e0c3a;fill-rule:evenodd;stroke:#1c1c1c;stroke-width:1.29999995;stroke-miterlimit:4;stroke-dasharray:none;stroke-opacity:1"
   id="path27"
   d="M 154.779,254.5 L 154.279,253 C 156.051,252.104 155.553,248.94 159.279,250 C 158.553,253.059 161.004,252.94 160.279,256 L 159.279,256 L 159.279,257 C 158.585,255.026 153.699,257.246 153.279,255 L 154.779,254.5 z "
   clip-rule="evenodd" /><path
   style="fill:#004812;fill-rule:evenodd;stroke:#1c1c1c;stroke-width:1.29999995;stroke-miterlimit:4;stroke-dasharray:none;stroke-opacity:1"
   id="path29"
   d="M 227.779,277.5 L 228.279,276 C 234.536,266.923 245.935,262.989 251.279,253 L 252.446,254.5 L 254.279,254 C 255.934,263.655 248.692,264.413 248.279,272 L 246.779,272.5 L 247.279,274 C 244.679,274.399 244.263,276.983 241.279,277 C 242.064,281.118 239.744,282.131 240.279,286 L 239.779,287 L 240.279,288 C 235.62,292.724 228.953,285.724 224.279,288 C 222.761,296.149 218.373,301.427 210.279,303 C 212.594,300.777 209.94,299.101 210.279,296 C 208.612,296 206.946,296 205.279,296 L 205.779,294.5 L 204.279,294 C 206.652,289.825 217.772,289.785 216.279,285 L 217.779,284.5 L 217.279,283 C 221.478,284.91 226.158,282.115 226.279,277 L 227.779,277.5 z "
   clip-rule="evenodd" /><path
   style="fill:#004812;fill-rule:evenodd;stroke:#1c1c1c;stroke-width:1.29999995;stroke-miterlimit:4;stroke-dasharray:none;stroke-opacity:1"
   id="path31"
   d="M 224.779,220.833 L 226.279,222 C 221.639,224.693 220.601,230.988 216.279,234 C 209.074,234.128 209.252,241.64 203.279,243 C 204.055,242.109 204.354,240.741 204.279,239 C 203.946,238.999 203.612,239 203.279,239 L 203.779,237.166 L 202.279,236 C 202.705,234.093 205.136,234.19 204.279,231 C 195.701,226.744 193.167,235.418 185.279,235 C 185.175,231.896 188.425,232.146 187.279,228 C 185.946,228 184.612,228 183.279,228 C 184.21,225.598 187.298,225.352 186.279,221 L 188.112,221.5 L 189.279,220 C 197.961,228.25 213.536,221.524 225.279,219 L 224.779,220.833 z "
   clip-rule="evenodd" /><path
   style="fill:#004812;fill-rule:evenodd;stroke:#1c1c1c;stroke-width:1.29999995;stroke-miterlimit:4;stroke-dasharray:none;stroke-opacity:1"
   id="path33"
   d="M 209.778,166.167 L 210.278,168 C 209.416,168.733 205.071,167.733 203.278,170 L 202.778,168.5 L 201.278,169 C 200.57,165.292 202.986,164.708 202.278,161 L 204.111,161.5 L 205.278,160 C 208.592,160.352 209.616,162.995 211.278,165 L 209.778,166.167 z "
   clip-rule="evenodd" /><path
   style="fill:#004812;fill-rule:evenodd;stroke:#1c1c1c;stroke-width:1.29999995;stroke-miterlimit:4;stroke-dasharray:none;stroke-opacity:1"
   id="path35"
   d="M 199.779,158.167 L 200.279,160 C 193.532,162.049 195.23,150.423 194.279,150 C 197.995,150.95 201.291,152.321 201.279,157 L 199.779,158.167 z "
   clip-rule="evenodd" /><path
   style="fill:#004812;fill-rule:evenodd;stroke:#1c1c1c;stroke-width:1.29999995;stroke-miterlimit:4;stroke-dasharray:none;stroke-opacity:1"
   id="path37"
   d="M 229.779,144.833 L 231.279,146 C 228.004,150.058 225.054,154.442 218.279,155 C 217.452,152.173 219.688,152.409 219.279,150 C 217.612,150 215.946,150 214.279,150 L 214.779,148.5 L 213.279,148 C 214.926,146.314 215.451,143.506 217.279,142 C 221.316,143.601 225.758,144.402 230.279,143 L 229.779,144.833 z "
   clip-rule="evenodd" /><path
   style="fill:#004812;fill-rule:evenodd;stroke:#1c1c1c;stroke-width:1.29999995;stroke-miterlimit:4;stroke-dasharray:none;stroke-opacity:1"
   id="path39"
   d="M 208.779,111.167 L 209.279,113 C 204.399,113.706 200.06,114.443 196.279,112 C 197.776,110.497 198.068,107.789 200.279,107 C 203.316,108.296 208.298,107.647 210.279,110 L 208.779,111.167 z "
   clip-rule="evenodd" /><path
   style="fill:#004812;fill-rule:evenodd;stroke:#1c1c1c;stroke-width:1.29999995;stroke-miterlimit:4;stroke-dasharray:none;stroke-opacity:1"
   id="path41"
   d="M 221.579,91.7 L 220.279,93 C 217.946,93 215.612,93 213.279,93 C 214.523,89.344 208.742,87.642 211.279,86 C 216.389,86.557 220.872,87.74 223.279,91 L 221.579,91.7 z "
   clip-rule="evenodd" /><path
   style="fill:#004812;fill-rule:evenodd;stroke:#1c1c1c;stroke-width:1.29999995;stroke-miterlimit:4;stroke-dasharray:none;stroke-opacity:1"
   id="path43"
   d="M 244.779,87.5 L 243.279,88 C 242.869,84.583 240.578,86.729 242.279,83 C 244.279,83 246.279,83 248.279,83 L 247.779,84.833 L 249.279,86 C 248.297,87.351 246.611,87.999 245.279,89 L 244.779,87.5 z "
   clip-rule="evenodd" /><path
   style="fill:#004812;fill-rule:evenodd;stroke:#1c1c1c;stroke-width:1.29999995;stroke-miterlimit:4;stroke-dasharray:none;stroke-opacity:1"
   id="path45"
   d="M 314.779,112.5 L 313.279,112 C 314.068,109.789 316.776,109.497 318.279,108 L 318.779,109.5 L 320.279,110 C 322.427,113.268 324.047,114.042 320.279,117 C 318.167,116.111 317.323,113.956 314.279,114 L 314.779,112.5 z "
   clip-rule="evenodd" /><path
   style="fill:#004812;fill-rule:evenodd;stroke:#1c1c1c;stroke-width:1.29999995;stroke-miterlimit:4;stroke-dasharray:none;stroke-opacity:1"
   id="path47"
   d="M 309.779,205.5 L 308.279,205 C 311.564,203.286 311.543,198.264 315.279,197 C 315.042,200.937 318.651,208.147 314.279,210 C 313.095,208.517 310.501,208.443 309.279,207 L 309.779,205.5 z "
   clip-rule="evenodd" /><path
   style="fill:#004812;fill-rule:evenodd;stroke:#1c1c1c;stroke-width:1.29999995;stroke-miterlimit:4;stroke-dasharray:none;stroke-opacity:1"
   id="path49"
   d="M 276.779,268.166 L 275.279,267 C 284.103,263.344 293.737,256.515 303.279,256 C 305.014,255.906 305.475,257.398 307.279,257 C 311.746,256.011 314.527,253.18 319.279,253 C 320.334,252.96 322.55,254.894 323.279,255 C 331.821,256.243 340.181,252.398 349.279,255 C 351.552,255.649 352.849,257.562 355.279,258 C 365.875,259.912 378.195,255.632 390.279,257 L 389.779,258.833 L 391.279,260 C 357.548,270.057 309.381,260.547 276.279,270 L 276.779,268.166 z "
   clip-rule="evenodd" /><path
   style="fill:#004812;fill-rule:evenodd;stroke:#1c1c1c;stroke-width:1.29999995;stroke-miterlimit:4;stroke-dasharray:none;stroke-opacity:1"
   id="path51"
   d="M 429.779,217.5 L 428.279,218 C 426.735,215.543 424.262,214.017 422.279,212 L 422.779,211 L 422.279,210 C 423.592,208.98 425.965,209.02 427.279,208 C 427.192,206.581 427.113,205.168 428.279,205 L 428.779,206.5 L 430.279,206 C 429.911,207.7 431.058,207.886 432.279,208 L 431.779,209.5 L 433.279,209 C 432.855,211.09 433.964,211.647 434.279,213 L 432.779,214.166 L 433.279,216 C 432.192,216.247 432.6,217.988 431.279,218 L 429.779,217.5 z "
   clip-rule="evenodd" /><path
   style="fill:#004812;fill-rule:evenodd;stroke:#1c1c1c;stroke-width:1.29999995;stroke-miterlimit:4;stroke-dasharray:none;stroke-opacity:1"
   id="path53"
   d="M 313.779,293.5 L 312.279,293 C 318.571,289.339 331.587,288.035 339.279,289 C 349.918,275.376 372.465,289.86 390.279,286 L 390.779,287.5 L 391.279,289 C 387.473,291.113 376.75,290.791 378.279,295 L 376.779,296.166 L 377.279,298 C 355.744,300.347 330.993,297.057 313.279,295 L 313.779,293.5 z "
   clip-rule="evenodd" /><path
   style="fill:#004812;fill-rule:evenodd;stroke:#1c1c1c;stroke-width:1.29999995;stroke-miterlimit:4;stroke-dasharray:none;stroke-opacity:1"
   id="path55"
   d="M 33.279,227 C 28.556,225.438 31.948,222.045 33.279,227 L 33.279,227 z "
   clip-rule="evenodd" /><g
   style="stroke:#1c1c1c;stroke-width:1.29999995;stroke-miterlimit:4;stroke-dasharray:none;stroke-opacity:1"
   id="g57">
		<path
   style="fill:none;fill-rule:evenodd;stroke:#1c1c1c;stroke-width:1.29999995;stroke-linecap:round;stroke-miterlimit:4;stroke-dasharray:none;stroke-opacity:1"
   id="path59"
   d="M 427.279,159.5 C 426.324,154.403 426.024,149.103 425.279,144"
   clip-rule="evenodd" />
		<path
   style="fill:none;fill-rule:evenodd;stroke:#1c1c1c;stroke-width:1.29999995;stroke-linecap:round;stroke-miterlimit:4;stroke-dasharray:none;stroke-opacity:1"
   id="path61"
   d="M 436.779,147 C 440.951,148.311 445.217,147.086 449.279,146"
   clip-rule="evenodd" />
		<path
   style="fill:none;fill-rule:evenodd;stroke:#1c1c1c;stroke-width:1.29999995;stroke-linecap:round;stroke-miterlimit:4;stroke-dasharray:none;stroke-opacity:1"
   id="path63"
   d="M 449.279,146 C 449.175,143.47 450.065,141.054 449.779,138.5"
   clip-rule="evenodd" />
		<path
   style="fill:none;fill-rule:evenodd;stroke:#1c1c1c;stroke-width:1.29999995;stroke-linecap:round;stroke-miterlimit:4;stroke-dasharray:none;stroke-opacity:1"
   id="path65"
   d="M 450.779,134.5 C 449.438,129.977 451.135,125.013 449.779,120.5"
   clip-rule="evenodd" />
		<path
   style="fill:none;fill-rule:evenodd;stroke:#1c1c1c;stroke-width:1.29999995;stroke-linecap:round;stroke-miterlimit:4;stroke-dasharray:none;stroke-opacity:1"
   id="path67"
   d="M 448.779,114.5 C 450.446,109.439 448.296,104.469 447.779,99.5"
   clip-rule="evenodd" />
		<path
   style="fill:none;fill-rule:evenodd;stroke:#1c1c1c;stroke-width:1.29999995;stroke-linecap:round;stroke-miterlimit:4;stroke-dasharray:none;stroke-opacity:1"
   id="path69"
   d="M 449.279,146 C 449.925,146.646 450.519,147.241 451.112,147.833"
   clip-rule="evenodd" />
		<path
   style="fill:none;fill-rule:evenodd;stroke:#1c1c1c;stroke-width:1.29999995;stroke-linecap:round;stroke-miterlimit:4;stroke-dasharray:none;stroke-opacity:1"
   id="path71"
   d="M 451.112,147.833 C 453.196,148.437 455.14,149.379 456.778,150.833"
   clip-rule="evenodd" />
		<path
   style="fill:none;fill-rule:evenodd;stroke:#1c1c1c;stroke-width:1.29999995;stroke-linecap:round;stroke-miterlimit:4;stroke-dasharray:none;stroke-opacity:1"
   id="path73"
   d="M 451.112,147.833 C 449.55,151.179 450.597,155 450.445,158.5"
   clip-rule="evenodd" />
		<path
   style="fill:none;fill-rule:evenodd;stroke:#1c1c1c;stroke-width:1.29999995;stroke-linecap:round;stroke-miterlimit:4;stroke-dasharray:none;stroke-opacity:1"
   id="path75"
   d="M 485.779,203.167 C 486.779,203.4 487.779,203.421 488.779,203.5"
   clip-rule="evenodd" />
		<path
   style="fill:none;fill-rule:evenodd;stroke:#1c1c1c;stroke-width:1.29999995;stroke-linecap:round;stroke-miterlimit:4;stroke-dasharray:none;stroke-opacity:1"
   id="path77"
   d="M 477.279,210.5 C 476.965,209.833 476.704,209.166 476.445,208.5"
   clip-rule="evenodd" />
		<path
   style="fill:none;fill-rule:evenodd;stroke:#1c1c1c;stroke-width:1.29999995;stroke-linecap:round;stroke-miterlimit:4;stroke-dasharray:none;stroke-opacity:1"
   id="path79"
   d="M 55.029,246.25 C 52.906,248.695 50.101,249.581 47.927,251.812 C 46.695,251.97 45.653,250.832 44.445,251.166"
   clip-rule="evenodd" />
		<path
   style="fill:none;fill-rule:evenodd;stroke:#1c1c1c;stroke-width:1.29999995;stroke-linecap:round;stroke-miterlimit:4;stroke-dasharray:none;stroke-opacity:1"
   id="path81"
   d="M 36.779,237.5 C 38.798,237.948 40.522,237.032 41.779,235.5"
   clip-rule="evenodd" />
		<path
   style="fill:none;fill-rule:evenodd;stroke:#1c1c1c;stroke-width:1.29999995;stroke-linecap:round;stroke-miterlimit:4;stroke-dasharray:none;stroke-opacity:1"
   id="path83"
   d="M 41.779,235.5 C 38.028,230.443 37.606,224.756 38.279,218.5"
   clip-rule="evenodd" />
		<path
   style="fill:none;fill-rule:evenodd;stroke:#1c1c1c;stroke-width:1.29999995;stroke-linecap:round;stroke-miterlimit:4;stroke-dasharray:none;stroke-opacity:1"
   id="path85"
   d="M 41.779,235.5 C 44.097,235.969 45.5,238.396 48.029,238"
   clip-rule="evenodd" />
		<path
   style="fill:none;fill-rule:evenodd;stroke:#1c1c1c;stroke-width:1.29999995;stroke-linecap:round;stroke-miterlimit:4;stroke-dasharray:none;stroke-opacity:1"
   id="path87"
   d="M 48.029,238 C 50.056,234.585 48.722,230.873 48.779,227.5"
   clip-rule="evenodd" />
		<path
   style="fill:none;fill-rule:evenodd;stroke:#1c1c1c;stroke-width:1.29999995;stroke-linecap:round;stroke-miterlimit:4;stroke-dasharray:none;stroke-opacity:1"
   id="path89"
   d="M 48.779,227.5 C 46.584,225.784 46.193,222.93 45.279,220.5"
   clip-rule="evenodd" />
		<path
   style="fill:none;fill-rule:evenodd;stroke:#1c1c1c;stroke-width:1.29999995;stroke-linecap:round;stroke-miterlimit:4;stroke-dasharray:none;stroke-opacity:1"
   id="path91"
   d="M 48.779,227.5 C 51.971,226.557 52.028,222.781 53.779,220.5"
   clip-rule="evenodd" />
		<path
   style="fill:none;fill-rule:evenodd;stroke:#1c1c1c;stroke-width:1.29999995;stroke-linecap:round;stroke-miterlimit:4;stroke-dasharray:none;stroke-opacity:1"
   id="path93"
   d="M 53.779,220.5 C 52.779,217.801 51.89,215.154 51.311,212.352 C 52.045,211.548 53.581,211.56 54.469,211.824 C 54.884,212.643 55.726,212.929 56.78,213.501"
   clip-rule="evenodd" />
		<path
   style="fill:none;fill-rule:evenodd;stroke:#1c1c1c;stroke-width:1.29999995;stroke-linecap:round;stroke-miterlimit:4;stroke-dasharray:none;stroke-opacity:1"
   id="path95"
   d="M 56.779,213.5 C 57.425,211.858 58.556,210.474 59.029,208.75"
   clip-rule="evenodd" />
		<path
   style="fill:none;fill-rule:evenodd;stroke:#1c1c1c;stroke-width:1.29999995;stroke-linecap:round;stroke-miterlimit:4;stroke-dasharray:none;stroke-opacity:1"
   id="path97"
   d="M 59.029,208.75 C 57.971,206.588 57.387,203.74 59.017,201.655 C 60.316,200.697 62.419,200.292 62.779,198.5"
   clip-rule="evenodd" />
		<path
   style="fill:none;fill-rule:evenodd;stroke:#1c1c1c;stroke-width:1.29999995;stroke-linecap:round;stroke-miterlimit:4;stroke-dasharray:none;stroke-opacity:1"
   id="path99"
   d="M 59.029,208.75 C 61.873,207.708 64.314,207.674 67.279,208"
   clip-rule="evenodd" />
		<path
   style="fill:none;fill-rule:evenodd;stroke:#1c1c1c;stroke-width:1.29999995;stroke-linecap:round;stroke-miterlimit:4;stroke-dasharray:none;stroke-opacity:1"
   id="path101"
   d="M 55.779,220.5 C 58.802,225.819 59.127,232.767 59.779,238.5"
   clip-rule="evenodd" />
		<path
   style="fill:none;fill-rule:evenodd;stroke:#1c1c1c;stroke-width:1.29999995;stroke-linecap:round;stroke-miterlimit:4;stroke-dasharray:none;stroke-opacity:1"
   id="path103"
   d="M 62.529,239.75 C 63.266,238.024 65.185,237.46 66.279,236"
   clip-rule="evenodd" />
		<path
   style="fill:none;fill-rule:evenodd;stroke:#1c1c1c;stroke-width:1.29999995;stroke-linecap:round;stroke-miterlimit:4;stroke-dasharray:none;stroke-opacity:1"
   id="path105"
   d="M 66.279,236 C 67.21,228.754 67.319,221.48 68.508,214.277 C 68.849,214.112 69.331,213.835 69.779,213.5"
   clip-rule="evenodd" />
		<path
   style="fill:none;fill-rule:evenodd;stroke:#1c1c1c;stroke-width:1.29999995;stroke-linecap:round;stroke-miterlimit:4;stroke-dasharray:none;stroke-opacity:1"
   id="path107"
   d="M 72.029,237 C 72.261,236.412 72.622,235.581 72.779,234.5"
   clip-rule="evenodd" />
		<path
   style="fill:none;fill-rule:evenodd;stroke:#1c1c1c;stroke-width:1.29999995;stroke-linecap:round;stroke-miterlimit:4;stroke-dasharray:none;stroke-opacity:1"
   id="path109"
   d="M 74.778,239.5 C 75.086,239.517 75.95,239.369 76.635,239.214"
   clip-rule="evenodd" />
		<path
   style="fill:none;fill-rule:evenodd;stroke:#1c1c1c;stroke-width:1.29999995;stroke-linecap:round;stroke-miterlimit:4;stroke-dasharray:none;stroke-opacity:1"
   id="path111"
   d="M 76.636,239.214 C 76.683,239.143 76.731,239.071 76.779,239"
   clip-rule="evenodd" />
		<path
   style="fill:none;fill-rule:evenodd;stroke:#1c1c1c;stroke-width:1.29999995;stroke-linecap:round;stroke-miterlimit:4;stroke-dasharray:none;stroke-opacity:1"
   id="path113"
   d="M 76.779,239 C 77.749,236.492 78.09,233.778 79.529,231.5"
   clip-rule="evenodd" />
		<path
   style="fill:none;fill-rule:evenodd;stroke:#1c1c1c;stroke-width:1.29999995;stroke-linecap:round;stroke-miterlimit:4;stroke-dasharray:none;stroke-opacity:1"
   id="path115"
   d="M 79.529,231.5 C 79.392,230.893 79.334,230.442 79.279,230"
   clip-rule="evenodd" />
		<path
   style="fill:none;fill-rule:evenodd;stroke:#1c1c1c;stroke-width:1.29999995;stroke-linecap:round;stroke-miterlimit:4;stroke-dasharray:none;stroke-opacity:1"
   id="path117"
   d="M 79.279,230 C 78.567,229.342 77.722,228.797 77.076,228.276 C 76.629,226.172 75.03,222.235 77.279,221"
   clip-rule="evenodd" />
		<path
   style="fill:none;fill-rule:evenodd;stroke:#1c1c1c;stroke-width:1.29999995;stroke-linecap:round;stroke-miterlimit:4;stroke-dasharray:none;stroke-opacity:1"
   id="path119"
   d="M 79.279,230 C 80.71,226.95 81.823,223.924 83.029,220.75"
   clip-rule="evenodd" />
		<path
   style="fill:none;fill-rule:evenodd;stroke:#1c1c1c;stroke-width:1.29999995;stroke-linecap:round;stroke-miterlimit:4;stroke-dasharray:none;stroke-opacity:1"
   id="path121"
   d="M 83.029,220.75 C 81.145,217.418 82.811,213.815 80.779,210.5"
   clip-rule="evenodd" />
		<path
   style="fill:none;fill-rule:evenodd;stroke:#1c1c1c;stroke-width:1.29999995;stroke-linecap:round;stroke-miterlimit:4;stroke-dasharray:none;stroke-opacity:1"
   id="path123"
   d="M 80.779,210.5 C 80.112,209.952 79.446,209.719 78.779,209.5"
   clip-rule="evenodd" />
		<path
   style="fill:none;fill-rule:evenodd;stroke:#1c1c1c;stroke-width:1.29999995;stroke-linecap:round;stroke-miterlimit:4;stroke-dasharray:none;stroke-opacity:1"
   id="path125"
   d="M 80.779,210.5 C 82.485,207.997 83.229,204.839 85.779,202.5"
   clip-rule="evenodd" />
		<path
   style="fill:none;fill-rule:evenodd;stroke:#1c1c1c;stroke-width:1.29999995;stroke-linecap:round;stroke-miterlimit:4;stroke-dasharray:none;stroke-opacity:1"
   id="path127"
   d="M 83.029,220.75 C 85.423,220.248 87.425,218.942 89.112,217.166"
   clip-rule="evenodd" />
		<path
   style="fill:none;fill-rule:evenodd;stroke:#1c1c1c;stroke-width:1.29999995;stroke-linecap:round;stroke-miterlimit:4;stroke-dasharray:none;stroke-opacity:1"
   id="path129"
   d="M 89.112,217.166 C 87.546,214.331 88.614,210.666 90.779,208.5"
   clip-rule="evenodd" />
		<path
   style="fill:none;fill-rule:evenodd;stroke:#1c1c1c;stroke-width:1.29999995;stroke-linecap:round;stroke-miterlimit:4;stroke-dasharray:none;stroke-opacity:1"
   id="path131"
   d="M 89.112,217.166 C 89.536,217.075 89.909,217.036 90.279,217"
   clip-rule="evenodd" />
		<path
   style="fill:none;fill-rule:evenodd;stroke:#1c1c1c;stroke-width:1.29999995;stroke-linecap:round;stroke-miterlimit:4;stroke-dasharray:none;stroke-opacity:1"
   id="path133"
   d="M 90.279,217 C 91.877,215.379 92.893,213.467 93.779,211.5"
   clip-rule="evenodd" />
		<path
   style="fill:none;fill-rule:evenodd;stroke:#1c1c1c;stroke-width:1.29999995;stroke-linecap:round;stroke-miterlimit:4;stroke-dasharray:none;stroke-opacity:1"
   id="path135"
   d="M 90.279,217 C 91.233,217.816 92.051,217.785 92.779,217.5"
   clip-rule="evenodd" />
		<path
   style="fill:none;fill-rule:evenodd;stroke:#1c1c1c;stroke-width:1.29999995;stroke-linecap:round;stroke-miterlimit:4;stroke-dasharray:none;stroke-opacity:1"
   id="path137"
   d="M 79.529,231.5 C 81.585,231.796 82.773,231.852 84.279,233"
   clip-rule="evenodd" />
		<path
   style="fill:none;fill-rule:evenodd;stroke:#1c1c1c;stroke-width:1.29999995;stroke-linecap:round;stroke-miterlimit:4;stroke-dasharray:none;stroke-opacity:1"
   id="path139"
   d="M 76.779,239 C 78.952,238.693 81.241,240.311 83.279,239"
   clip-rule="evenodd" />
		<path
   style="fill:none;fill-rule:evenodd;stroke:#1c1c1c;stroke-width:1.29999995;stroke-linecap:round;stroke-miterlimit:4;stroke-dasharray:none;stroke-opacity:1"
   id="path141"
   d="M 76.636,239.214 C 77.222,240.509 77.568,241.31 77.779,242.5"
   clip-rule="evenodd" />
		<path
   style="fill:none;fill-rule:evenodd;stroke:#1c1c1c;stroke-width:1.29999995;stroke-linecap:round;stroke-miterlimit:4;stroke-dasharray:none;stroke-opacity:1"
   id="path143"
   d="M 65.779,247.5 C 72.541,254.237 75.247,263.586 81.779,270.5"
   clip-rule="evenodd" />
		<path
   style="fill:none;fill-rule:evenodd;stroke:#1c1c1c;stroke-width:1.29999995;stroke-linecap:round;stroke-miterlimit:4;stroke-dasharray:none;stroke-opacity:1"
   id="path145"
   d="M 99.779,244.5 C 106.396,243.019 113.225,246.359 119.779,245.5"
   clip-rule="evenodd" />
		<path
   style="fill:none;fill-rule:evenodd;stroke:#1c1c1c;stroke-width:1.29999995;stroke-linecap:round;stroke-miterlimit:4;stroke-dasharray:none;stroke-opacity:1"
   id="path147"
   d="M 124.279,246 C 130.9,248.018 131.056,255.37 135.779,259.5"
   clip-rule="evenodd" />
		<path
   style="fill:none;fill-rule:evenodd;stroke:#1c1c1c;stroke-width:1.29999995;stroke-linecap:round;stroke-miterlimit:4;stroke-dasharray:none;stroke-opacity:1"
   id="path149"
   d="M 143.779,252.5 C 147.512,251.799 151.01,253.951 154.779,254.5"
   clip-rule="evenodd" />
		<path
   style="fill:none;fill-rule:evenodd;stroke:#1c1c1c;stroke-width:1.29999995;stroke-linecap:round;stroke-miterlimit:4;stroke-dasharray:none;stroke-opacity:1"
   id="path151"
   d="M 167.779,281.5 C 182.543,284.359 197.403,283.515 212.279,283"
   clip-rule="evenodd" />
		<path
   style="fill:none;fill-rule:evenodd;stroke:#1c1c1c;stroke-width:1.29999995;stroke-linecap:round;stroke-miterlimit:4;stroke-dasharray:none;stroke-opacity:1"
   id="path153"
   d="M 227.779,277.5 C 222.707,275.835 215.672,278.737 212.279,283"
   clip-rule="evenodd" />
		<path
   style="fill:none;fill-rule:evenodd;stroke:#1c1c1c;stroke-width:1.29999995;stroke-linecap:round;stroke-miterlimit:4;stroke-dasharray:none;stroke-opacity:1"
   id="path155"
   d="M 252.445,254.5 C 252.659,253.5 252.851,252.5 253.112,251.5"
   clip-rule="evenodd" />
		<path
   style="fill:none;fill-rule:evenodd;stroke:#1c1c1c;stroke-width:1.29999995;stroke-linecap:round;stroke-miterlimit:4;stroke-dasharray:none;stroke-opacity:1"
   id="path157"
   d="M 211.445,267.166 C 212.142,266.688 212.93,265.814 213.778,264.5"
   clip-rule="evenodd" />
		<path
   style="fill:none;fill-rule:evenodd;stroke:#1c1c1c;stroke-width:1.29999995;stroke-linecap:round;stroke-miterlimit:4;stroke-dasharray:none;stroke-opacity:1"
   id="path159"
   d="M 192.779,269.5 C 192.78,269.501 192.781,269.503 192.782,269.505 C 193.123,269.196 193.71,268.266 194.112,267.5"
   clip-rule="evenodd" />
		<path
   style="fill:none;fill-rule:evenodd;stroke:#1c1c1c;stroke-width:1.29999995;stroke-linecap:round;stroke-miterlimit:4;stroke-dasharray:none;stroke-opacity:1"
   id="path161"
   d="M 226.779,238 C 229.163,237.219 231.573,236.452 233.779,235.166"
   clip-rule="evenodd" />
		<path
   style="fill:none;fill-rule:evenodd;stroke:#1c1c1c;stroke-width:1.29999995;stroke-linecap:round;stroke-miterlimit:4;stroke-dasharray:none;stroke-opacity:1"
   id="path163"
   d="M 226.779,220.166 C 226.112,220.389 225.446,220.61 224.779,220.833"
   clip-rule="evenodd" />
		<path
   style="fill:none;fill-rule:evenodd;stroke:#1c1c1c;stroke-width:1.29999995;stroke-linecap:round;stroke-miterlimit:4;stroke-dasharray:none;stroke-opacity:1"
   id="path165"
   d="M 198.279,240 C 200.072,239.178 201.735,237.67 203.779,237.166"
   clip-rule="evenodd" />
		<path
   style="fill:none;fill-rule:evenodd;stroke:#1c1c1c;stroke-width:1.29999995;stroke-linecap:round;stroke-miterlimit:4;stroke-dasharray:none;stroke-opacity:1"
   id="path167"
   d="M 179.779,219 C 180.538,217.931 182.304,216.839 182.946,216.333"
   clip-rule="evenodd" />
		<path
   style="fill:none;fill-rule:evenodd;stroke:#1c1c1c;stroke-width:1.29999995;stroke-linecap:round;stroke-miterlimit:4;stroke-dasharray:none;stroke-opacity:1"
   id="path169"
   d="M 182.945,216.333 C 181.516,213.853 179.111,212.072 177.778,209.5"
   clip-rule="evenodd" />
		<path
   style="fill:none;fill-rule:evenodd;stroke:#1c1c1c;stroke-width:1.29999995;stroke-linecap:round;stroke-miterlimit:4;stroke-dasharray:none;stroke-opacity:1"
   id="path171"
   d="M 182.945,216.333 C 185.325,217.131 187.369,219.079 188.112,221.5"
   clip-rule="evenodd" />
		<path
   style="fill:none;fill-rule:evenodd;stroke:#1c1c1c;stroke-width:1.29999995;stroke-linecap:round;stroke-miterlimit:4;stroke-dasharray:none;stroke-opacity:1"
   id="path173"
   d="M 215.279,210 C 216.1,208.954 216.226,207.772 216.779,206.5"
   clip-rule="evenodd" />
		<path
   style="fill:none;fill-rule:evenodd;stroke:#1c1c1c;stroke-width:1.29999995;stroke-linecap:round;stroke-miterlimit:4;stroke-dasharray:none;stroke-opacity:1"
   id="path175"
   d="M 209.779,206.5 C 210.654,205.553 211.636,205.105 212.779,204.5"
   clip-rule="evenodd" />
		<path
   style="fill:none;fill-rule:evenodd;stroke:#1c1c1c;stroke-width:1.29999995;stroke-linecap:round;stroke-miterlimit:4;stroke-dasharray:none;stroke-opacity:1"
   id="path177"
   d="M 184.445,182.833 C 186.395,183.041 187.807,184.615 189.778,184.833"
   clip-rule="evenodd" />
		<path
   style="fill:none;fill-rule:evenodd;stroke:#1c1c1c;stroke-width:1.29999995;stroke-linecap:round;stroke-miterlimit:4;stroke-dasharray:none;stroke-opacity:1"
   id="path179"
   d="M 210.779,173 C 213.634,173.222 213.925,169.984 214.654,168"
   clip-rule="evenodd" />
		<path
   style="fill:none;fill-rule:evenodd;stroke:#1c1c1c;stroke-width:1.29999995;stroke-linecap:round;stroke-miterlimit:4;stroke-dasharray:none;stroke-opacity:1"
   id="path181"
   d="M 214.654,168 C 213.411,166.652 211.421,166.661 209.779,166.167"
   clip-rule="evenodd" />
		<path
   style="fill:none;fill-rule:evenodd;stroke:#1c1c1c;stroke-width:1.29999995;stroke-linecap:round;stroke-miterlimit:4;stroke-dasharray:none;stroke-opacity:1"
   id="path183"
   d="M 201.279,171 C 201.95,170.179 202.27,169.39 202.779,168.5"
   clip-rule="evenodd" />
		<path
   style="fill:none;fill-rule:evenodd;stroke:#1c1c1c;stroke-width:1.29999995;stroke-linecap:round;stroke-miterlimit:4;stroke-dasharray:none;stroke-opacity:1"
   id="path185"
   d="M 199.779,158.167 C 201.582,158.888 203.079,160.047 204.112,161.5"
   clip-rule="evenodd" />
		<path
   style="fill:none;fill-rule:evenodd;stroke:#1c1c1c;stroke-width:1.29999995;stroke-linecap:round;stroke-miterlimit:4;stroke-dasharray:none;stroke-opacity:1"
   id="path187"
   d="M 214.654,168 C 217.063,167.9 219.416,168.459 221.779,168.833"
   clip-rule="evenodd" />
		<path
   style="fill:none;fill-rule:evenodd;stroke:#1c1c1c;stroke-width:1.29999995;stroke-linecap:round;stroke-miterlimit:4;stroke-dasharray:none;stroke-opacity:1"
   id="path189"
   d="M 236.779,156.167 C 235.871,156.558 234.413,156.888 232.779,157.5"
   clip-rule="evenodd" />
		<path
   style="fill:none;fill-rule:evenodd;stroke:#1c1c1c;stroke-width:1.29999995;stroke-linecap:round;stroke-miterlimit:4;stroke-dasharray:none;stroke-opacity:1"
   id="path191"
   d="M 231.779,144.167 C 231.112,144.389 230.446,144.611 229.779,144.834"
   clip-rule="evenodd" />
		<path
   style="fill:none;fill-rule:evenodd;stroke:#1c1c1c;stroke-width:1.29999995;stroke-linecap:round;stroke-miterlimit:4;stroke-dasharray:none;stroke-opacity:1"
   id="path193"
   d="M 209.279,149 C 211.112,148.901 213.053,149.326 214.779,148.5"
   clip-rule="evenodd" />
		<path
   style="fill:none;fill-rule:evenodd;stroke:#1c1c1c;stroke-width:1.29999995;stroke-linecap:round;stroke-miterlimit:4;stroke-dasharray:none;stroke-opacity:1"
   id="path195"
   d="M 229.779,128 C 231.097,127.765 231.69,127.504 232.779,127.167"
   clip-rule="evenodd" />
		<path
   style="fill:none;fill-rule:evenodd;stroke:#1c1c1c;stroke-width:1.29999995;stroke-linecap:round;stroke-miterlimit:4;stroke-dasharray:none;stroke-opacity:1"
   id="path197"
   d="M 213.779,112.833 C 212.112,112.237 210.446,111.783 208.779,111.166"
   clip-rule="evenodd" />
		<path
   style="fill:none;fill-rule:evenodd;stroke:#1c1c1c;stroke-width:1.29999995;stroke-linecap:round;stroke-miterlimit:4;stroke-dasharray:none;stroke-opacity:1"
   id="path199"
   d="M 234.279,108 C 236.878,106.16 240.073,103.906 240.779,100.5"
   clip-rule="evenodd" />
		<path
   style="fill:none;fill-rule:evenodd;stroke:#1c1c1c;stroke-width:1.29999995;stroke-linecap:round;stroke-miterlimit:4;stroke-dasharray:none;stroke-opacity:1"
   id="path201"
   d="M 224.279,104 C 226.118,101.86 227.503,99.378 227.779,96.5"
   clip-rule="evenodd" />
		<path
   style="fill:none;fill-rule:evenodd;stroke:#1c1c1c;stroke-width:1.29999995;stroke-linecap:round;stroke-miterlimit:4;stroke-dasharray:none;stroke-opacity:1"
   id="path203"
   d="M 227.779,96.5 C 225.828,94.749 223.329,93.683 221.579,91.7"
   clip-rule="evenodd" />
		<path
   style="fill:none;fill-rule:evenodd;stroke:#1c1c1c;stroke-width:1.29999995;stroke-linecap:round;stroke-miterlimit:4;stroke-dasharray:none;stroke-opacity:1"
   id="path205"
   d="M 227.779,96.5 C 230.44,96.641 233.168,96.17 235.779,96.833"
   clip-rule="evenodd" />
		<path
   style="fill:none;fill-rule:evenodd;stroke:#1c1c1c;stroke-width:1.29999995;stroke-linecap:round;stroke-miterlimit:4;stroke-dasharray:none;stroke-opacity:1"
   id="path207"
   d="M 242.279,92.5 C 241.583,90.234 244.058,89.284 244.779,87.5"
   clip-rule="evenodd" />
		<path
   style="fill:none;fill-rule:evenodd;stroke:#1c1c1c;stroke-width:1.29999995;stroke-linecap:round;stroke-miterlimit:4;stroke-dasharray:none;stroke-opacity:1"
   id="path209"
   d="M 247.779,84.833 C 249.405,84.18 250.049,83.673 251.112,82.5"
   clip-rule="evenodd" />
		<path
   style="fill:none;fill-rule:evenodd;stroke:#1c1c1c;stroke-width:1.29999995;stroke-linecap:round;stroke-miterlimit:4;stroke-dasharray:none;stroke-opacity:1"
   id="path211"
   d="M 228.779,74.833 C 235.144,74.956 241.923,73.457 247.779,76.833"
   clip-rule="evenodd" />
		<path
   style="fill:none;fill-rule:evenodd;stroke:#1c1c1c;stroke-width:1.29999995;stroke-linecap:round;stroke-miterlimit:4;stroke-dasharray:none;stroke-opacity:1"
   id="path213"
   d="M 242.112,59.167 C 242.773,59.856 243.798,60.326 244.636,60.786"
   clip-rule="evenodd" />
		<path
   style="fill:none;fill-rule:evenodd;stroke:#1c1c1c;stroke-width:1.29999995;stroke-linecap:round;stroke-miterlimit:4;stroke-dasharray:none;stroke-opacity:1"
   id="path215"
   d="M 263.493,34.357 C 262.995,34.964 262.816,36.282 262.446,37.5"
   clip-rule="evenodd" />
		<path
   style="fill:none;fill-rule:evenodd;stroke:#1c1c1c;stroke-width:1.29999995;stroke-linecap:round;stroke-miterlimit:4;stroke-dasharray:none;stroke-opacity:1"
   id="path217"
   d="M 269.779,42.833 C 270.485,42.571 271.296,42.205 272.112,41.833"
   clip-rule="evenodd" />
		<path
   style="fill:none;fill-rule:evenodd;stroke:#1c1c1c;stroke-width:1.29999995;stroke-linecap:round;stroke-miterlimit:4;stroke-dasharray:none;stroke-opacity:1"
   id="path219"
   d="M 320.779,108 C 319.99,108.442 319.425,108.99 318.779,109.5"
   clip-rule="evenodd" />
		<path
   style="fill:none;fill-rule:evenodd;stroke:#1c1c1c;stroke-width:1.29999995;stroke-linecap:round;stroke-miterlimit:4;stroke-dasharray:none;stroke-opacity:1"
   id="path221"
   d="M 314.779,112.5 C 313.411,112.94 311.799,114.563 310.779,115.5"
   clip-rule="evenodd" />
		<path
   style="fill:none;fill-rule:evenodd;stroke:#1c1c1c;stroke-width:1.29999995;stroke-linecap:round;stroke-miterlimit:4;stroke-dasharray:none;stroke-opacity:1"
   id="path223"
   d="M 313.279,123 C 313.297,122.569 312.54,122.054 311.779,121.5"
   clip-rule="evenodd" />
		<path
   style="fill:none;fill-rule:evenodd;stroke:#1c1c1c;stroke-width:1.29999995;stroke-linecap:round;stroke-miterlimit:4;stroke-dasharray:none;stroke-opacity:1"
   id="path225"
   d="M 307.779,143.167 C 309.445,143.599 311.112,143.954 312.779,144"
   clip-rule="evenodd" />
		<path
   style="fill:none;fill-rule:evenodd;stroke:#1c1c1c;stroke-width:1.29999995;stroke-linecap:round;stroke-miterlimit:4;stroke-dasharray:none;stroke-opacity:1"
   id="path227"
   d="M 300.779,163.833 C 302.422,163.316 304.034,162.567 305.779,162.5"
   clip-rule="evenodd" />
		<path
   style="fill:none;fill-rule:evenodd;stroke:#1c1c1c;stroke-width:1.29999995;stroke-linecap:round;stroke-miterlimit:4;stroke-dasharray:none;stroke-opacity:1"
   id="path229"
   d="M 316.779,179.5 C 316.112,180.086 315.445,180.465 314.779,180.833"
   clip-rule="evenodd" />
		<path
   style="fill:none;fill-rule:evenodd;stroke:#1c1c1c;stroke-width:1.29999995;stroke-linecap:round;stroke-miterlimit:4;stroke-dasharray:none;stroke-opacity:1"
   id="path231"
   d="M 313.279,188.5 C 312.948,187.857 312.745,187.28 312.445,186.5"
   clip-rule="evenodd" />
		<path
   style="fill:none;fill-rule:evenodd;stroke:#1c1c1c;stroke-width:1.29999995;stroke-linecap:round;stroke-miterlimit:4;stroke-dasharray:none;stroke-opacity:1"
   id="path233"
   d="M 296.779,209.833 C 299.142,209.563 301.432,208.86 303.779,208.5"
   clip-rule="evenodd" />
		<path
   style="fill:none;fill-rule:evenodd;stroke:#1c1c1c;stroke-width:1.29999995;stroke-linecap:round;stroke-miterlimit:4;stroke-dasharray:none;stroke-opacity:1"
   id="path235"
   d="M 303.779,208.5 C 305.396,206.58 307.436,205.932 309.779,205.5"
   clip-rule="evenodd" />
		<path
   style="fill:none;fill-rule:evenodd;stroke:#1c1c1c;stroke-width:1.29999995;stroke-linecap:round;stroke-miterlimit:4;stroke-dasharray:none;stroke-opacity:1"
   id="path237"
   d="M 303.779,208.5 C 304.475,209.501 304.961,210.506 305.546,211.504 C 305.525,212.364 305.344,212.866 305.263,213.421 C 304.977,213.818 304.301,214.548 303.662,215.194 C 301.91,215.67 300.086,215.296 298.308,215.582 C 297.306,214.49 296.917,212.831 296.446,211.5"
   clip-rule="evenodd" />
		<path
   style="fill:none;fill-rule:evenodd;stroke:#1c1c1c;stroke-width:1.29999995;stroke-linecap:round;stroke-miterlimit:4;stroke-dasharray:none;stroke-opacity:1"
   id="path239"
   d="M 389.779,258.833 C 394.176,258.485 398.412,257.597 402.635,256.214"
   clip-rule="evenodd" />
		<path
   style="fill:none;fill-rule:evenodd;stroke:#1c1c1c;stroke-width:1.29999995;stroke-linecap:round;stroke-miterlimit:4;stroke-dasharray:none;stroke-opacity:1"
   id="path241"
   d="M 409.779,238.5 C 409.879,238.266 409.978,238.033 410.079,237.8 C 414.051,237.479 417.264,236.071 420.778,234.5"
   clip-rule="evenodd" />
		<path
   style="fill:none;fill-rule:evenodd;stroke:#1c1c1c;stroke-width:1.29999995;stroke-linecap:round;stroke-miterlimit:4;stroke-dasharray:none;stroke-opacity:1"
   id="path243"
   d="M 429.445,226.5 C 430.081,223.554 429.648,220.493 429.779,217.5"
   clip-rule="evenodd" />
		<path
   style="fill:none;fill-rule:evenodd;stroke:#1c1c1c;stroke-width:1.29999995;stroke-linecap:round;stroke-miterlimit:4;stroke-dasharray:none;stroke-opacity:1"
   id="path245"
   d="M 422.779,211 C 421.187,211.857 419.315,211.684 417.779,212.5"
   clip-rule="evenodd" />
		<path
   style="fill:none;fill-rule:evenodd;stroke:#1c1c1c;stroke-width:1.29999995;stroke-linecap:round;stroke-miterlimit:4;stroke-dasharray:none;stroke-opacity:1"
   id="path247"
   d="M 428.779,206.5 C 429.525,202.972 429.616,199.019 428.779,195.5"
   clip-rule="evenodd" />
		<path
   style="fill:none;fill-rule:evenodd;stroke:#1c1c1c;stroke-width:1.29999995;stroke-linecap:round;stroke-miterlimit:4;stroke-dasharray:none;stroke-opacity:1"
   id="path249"
   d="M 416.779,191 C 417.779,190.971 418.779,191.228 419.779,191.5"
   clip-rule="evenodd" />
		<path
   style="fill:none;fill-rule:evenodd;stroke:#1c1c1c;stroke-width:1.29999995;stroke-linecap:round;stroke-miterlimit:4;stroke-dasharray:none;stroke-opacity:1"
   id="path251"
   d="M 428.779,178.5 C 428.831,177.167 428.721,175.833 428.445,174.5"
   clip-rule="evenodd" />
		<path
   style="fill:none;fill-rule:evenodd;stroke:#1c1c1c;stroke-width:1.29999995;stroke-linecap:round;stroke-miterlimit:4;stroke-dasharray:none;stroke-opacity:1"
   id="path253"
   d="M 423.779,172.5 C 423.278,173 422.779,173.5 422.279,174"
   clip-rule="evenodd" />
		<path
   style="fill:none;fill-rule:evenodd;stroke:#1c1c1c;stroke-width:1.29999995;stroke-linecap:round;stroke-miterlimit:4;stroke-dasharray:none;stroke-opacity:1"
   id="path255"
   d="M 276.064,134.357 C 275.776,132.94 275.238,131.613 274.778,130.5"
   clip-rule="evenodd" />
		<path
   style="fill:none;fill-rule:evenodd;stroke:#1c1c1c;stroke-width:1.29999995;stroke-linecap:round;stroke-miterlimit:4;stroke-dasharray:none;stroke-opacity:1"
   id="path257"
   d="M 246.779,135.5 C 242.995,135.546 240.471,138.229 237.779,140.5"
   clip-rule="evenodd" />
		<path
   style="fill:none;fill-rule:evenodd;stroke:#1c1c1c;stroke-width:1.29999995;stroke-linecap:round;stroke-miterlimit:4;stroke-dasharray:none;stroke-opacity:1"
   id="path259"
   d="M 280.112,180.5 C 279.702,178.499 279.629,176.396 278.779,174.5"
   clip-rule="evenodd" />
		<path
   style="fill:none;fill-rule:evenodd;stroke:#1c1c1c;stroke-width:1.29999995;stroke-linecap:round;stroke-miterlimit:4;stroke-dasharray:none;stroke-opacity:1"
   id="path261"
   d="M 431.779,209.5 C 432.569,208.014 434.667,208.001 435.279,206.5"
   clip-rule="evenodd" />
		<path
   style="fill:none;fill-rule:evenodd;stroke:#1c1c1c;stroke-width:1.29999995;stroke-linecap:round;stroke-miterlimit:4;stroke-dasharray:none;stroke-opacity:1"
   id="path263"
   d="M 437.779,216 C 436.112,215.508 434.445,214.581 432.779,214.166"
   clip-rule="evenodd" />
		<path
   style="fill:none;fill-rule:evenodd;stroke:#1c1c1c;stroke-width:1.29999995;stroke-linecap:round;stroke-miterlimit:4;stroke-dasharray:none;stroke-opacity:1"
   id="path265"
   d="M 53.779,220.5 C 54.446,220.5 55.112,220.5 55.779,220.5"
   clip-rule="evenodd" />
		<path
   style="fill:none;fill-rule:evenodd;stroke:#1c1c1c;stroke-width:1.29999995;stroke-linecap:round;stroke-miterlimit:4;stroke-dasharray:none;stroke-opacity:1"
   id="path267"
   d="M 55.779,220.5 C 56.794,218.291 57.457,215.886 56.779,213.5"
   clip-rule="evenodd" />
		<path
   style="fill:none;fill-rule:evenodd;stroke:#1c1c1c;stroke-width:1.29999995;stroke-linecap:round;stroke-miterlimit:4;stroke-dasharray:none;stroke-opacity:1"
   id="path269"
   d="M 48.029,238 C 48.983,242.037 54.709,242.193 55.029,246.25"
   clip-rule="evenodd" />
		<path
   style="fill:none;fill-rule:evenodd;stroke:#1c1c1c;stroke-width:1.29999995;stroke-linecap:round;stroke-miterlimit:4;stroke-dasharray:none;stroke-opacity:1"
   id="path271"
   d="M 55.029,246.25 C 58.518,247.01 62.265,249.984 65.779,247.5"
   clip-rule="evenodd" />
		<path
   style="fill:none;fill-rule:evenodd;stroke:#1c1c1c;stroke-width:1.29999995;stroke-linecap:round;stroke-miterlimit:4;stroke-dasharray:none;stroke-opacity:1"
   id="path273"
   d="M 65.779,247.5 C 65.779,247.333 65.779,247.166 65.779,247"
   clip-rule="evenodd" />
		<path
   style="fill:none;fill-rule:evenodd;stroke:#1c1c1c;stroke-width:1.29999995;stroke-linecap:round;stroke-miterlimit:4;stroke-dasharray:none;stroke-opacity:1"
   id="path275"
   d="M 65.779,247 C 64.511,244.671 63.333,242.287 62.529,239.75"
   clip-rule="evenodd" />
		<path
   style="fill:none;fill-rule:evenodd;stroke:#1c1c1c;stroke-width:1.29999995;stroke-linecap:round;stroke-miterlimit:4;stroke-dasharray:none;stroke-opacity:1"
   id="path277"
   d="M 62.529,239.75 C 61.704,239.633 60.719,239.103 59.779,238.5"
   clip-rule="evenodd" />
		<path
   style="fill:none;fill-rule:evenodd;stroke:#1c1c1c;stroke-width:1.29999995;stroke-linecap:round;stroke-miterlimit:4;stroke-dasharray:none;stroke-opacity:1"
   id="path279"
   d="M 59.779,238.5 C 57.502,237.843 55.581,236.851 53.779,235.5"
   clip-rule="evenodd" />
		<path
   style="fill:none;fill-rule:evenodd;stroke:#1c1c1c;stroke-width:1.29999995;stroke-linecap:round;stroke-miterlimit:4;stroke-dasharray:none;stroke-opacity:1"
   id="path281"
   d="M 65.779,247 C 69.165,244.89 72.668,243.073 74.779,239.5"
   clip-rule="evenodd" />
		<path
   style="fill:none;fill-rule:evenodd;stroke:#1c1c1c;stroke-width:1.29999995;stroke-linecap:round;stroke-miterlimit:4;stroke-dasharray:none;stroke-opacity:1"
   id="path283"
   d="M 74.778,239.5 C 73.742,238.57 72.734,238.085 72.028,237"
   clip-rule="evenodd" />
		<path
   style="fill:none;fill-rule:evenodd;stroke:#1c1c1c;stroke-width:1.29999995;stroke-linecap:round;stroke-miterlimit:4;stroke-dasharray:none;stroke-opacity:1"
   id="path285"
   d="M 72.029,237 C 70.078,237.049 67.958,237.17 66.279,236"
   clip-rule="evenodd" />
		<path
   style="fill:none;fill-rule:evenodd;stroke:#1c1c1c;stroke-width:1.29999995;stroke-linecap:round;stroke-miterlimit:4;stroke-dasharray:none;stroke-opacity:1"
   id="path287"
   d="M 276.779,268.166 C 274.413,268.688 272.318,270.27 269.779,270"
   clip-rule="evenodd" />
		<path
   style="fill:none;fill-rule:evenodd;stroke:#1c1c1c;stroke-width:1.29999995;stroke-linecap:round;stroke-miterlimit:4;stroke-dasharray:none;stroke-opacity:1"
   id="path289"
   d="M 268.279,289 C 283.346,288.926 298.79,294.117 313.779,293.5"
   clip-rule="evenodd" />
		<path
   style="fill:none;fill-rule:evenodd;stroke:#1c1c1c;stroke-width:1.29999995;stroke-linecap:round;stroke-miterlimit:4;stroke-dasharray:none;stroke-opacity:1"
   id="path291"
   d="M 390.779,287.5 C 428.788,278.489 468.352,277.56 506.779,272.5"
   clip-rule="evenodd" />
		<path
   style="fill:none;fill-rule:evenodd;stroke:#1c1c1c;stroke-width:1.29999995;stroke-linecap:round;stroke-miterlimit:4;stroke-dasharray:none;stroke-opacity:1"
   id="path293"
   d="M 515.779,247 C 504,246.906 492.382,247.247 480.779,247.166"
   clip-rule="evenodd" />
		<path
   style="fill:none;fill-rule:evenodd;stroke:#1c1c1c;stroke-width:1.29999995;stroke-linecap:round;stroke-miterlimit:4;stroke-dasharray:none;stroke-opacity:1"
   id="path295"
   d="M 169.279,272 C 169.571,265.449 167.148,256.992 159.279,256"
   clip-rule="evenodd" />
		<path
   style="fill:none;fill-rule:evenodd;stroke:#1c1c1c;stroke-width:1.29999995;stroke-linecap:round;stroke-miterlimit:4;stroke-dasharray:none;stroke-opacity:1"
   id="path297"
   d="M 144.112,261.5 C 143.898,260.5 143.705,259.499 143.445,258.5"
   clip-rule="evenodd" />
		<path
   style="fill:none;fill-rule:evenodd;stroke:#1c1c1c;stroke-width:1.29999995;stroke-linecap:round;stroke-miterlimit:4;stroke-dasharray:none;stroke-opacity:1"
   id="path299"
   d="M 239.779,287 C 245.838,287.363 251.723,287.02 257.779,288"
   clip-rule="evenodd" />
		<path
   style="fill:none;fill-rule:evenodd;stroke:#1c1c1c;stroke-width:1.29999995;stroke-linecap:round;stroke-miterlimit:4;stroke-dasharray:none;stroke-opacity:1"
   id="path301"
   d="M 256.779,272 C 253.669,273.324 250.011,273.382 246.779,272.5"
   clip-rule="evenodd" />
		<path
   style="fill:none;fill-rule:evenodd;stroke:#1c1c1c;stroke-width:1.29999995;stroke-linecap:round;stroke-miterlimit:4;stroke-dasharray:none;stroke-opacity:1"
   id="path303"
   d="M 376.779,296.166 C 398.252,296.077 420.243,296.5 441.279,300"
   clip-rule="evenodd" />
		<path
   style="fill:none;fill-rule:evenodd;stroke:#1c1c1c;stroke-width:1.29999995;stroke-linecap:round;stroke-miterlimit:4;stroke-dasharray:none;stroke-opacity:1"
   id="path305"
   d="M 365.779,316.5 C 365.755,314.821 365.74,313.147 366.064,311.643"
   clip-rule="evenodd" />
		<path
   style="fill:none;fill-rule:evenodd;stroke:#1c1c1c;stroke-width:1.29999995;stroke-linecap:round;stroke-miterlimit:4;stroke-dasharray:none;stroke-opacity:1"
   id="path307"
   d="M 368.779,325 C 369.779,325.028 370.779,324.771 371.779,324.5"
   clip-rule="evenodd" />
		<path
   style="fill:none;fill-rule:evenodd;stroke:#1c1c1c;stroke-width:1.29999995;stroke-linecap:round;stroke-miterlimit:4;stroke-dasharray:none;stroke-opacity:1"
   id="path309"
   d="M 421.779,318.166 C 422.917,318.561 423.886,319.55 424.779,320.5"
   clip-rule="evenodd" />
		<path
   style="fill:none;fill-rule:evenodd;stroke:#1c1c1c;stroke-width:1.29999995;stroke-linecap:round;stroke-miterlimit:4;stroke-dasharray:none;stroke-opacity:1"
   id="path311"
   d="M 212.279,283 C 213.738,284.552 216.068,283.496 217.779,284.5"
   clip-rule="evenodd" />
		<path
   style="fill:none;fill-rule:evenodd;stroke:#1c1c1c;stroke-width:1.29999995;stroke-linecap:round;stroke-miterlimit:4;stroke-dasharray:none;stroke-opacity:1"
   id="path313"
   d="M 180.445,346.5 C 182.081,342.362 184.663,338.707 186.112,334.5"
   clip-rule="evenodd" />
		<path
   style="fill:none;fill-rule:evenodd;stroke:#1c1c1c;stroke-width:1.29999995;stroke-linecap:round;stroke-miterlimit:4;stroke-dasharray:none;stroke-opacity:1"
   id="path315"
   d="M 178.779,323.5 C 179.112,321.292 179.995,319.073 181.779,317.5"
   clip-rule="evenodd" />
		<path
   style="fill:none;fill-rule:evenodd;stroke:#1c1c1c;stroke-width:1.29999995;stroke-linecap:round;stroke-miterlimit:4;stroke-dasharray:none;stroke-opacity:1"
   id="path317"
   d="M 211.779,322.5 C 212.639,320.958 212.903,319.249 212.779,317.5"
   clip-rule="evenodd" />
		<path
   style="fill:none;fill-rule:evenodd;stroke:#1c1c1c;stroke-width:1.29999995;stroke-linecap:round;stroke-miterlimit:4;stroke-dasharray:none;stroke-opacity:1"
   id="path319"
   d="M 211.779,322.5 C 212.848,330.402 207.995,337.673 207.279,345.5"
   clip-rule="evenodd" />
		<path
   style="fill:none;fill-rule:evenodd;stroke:#1c1c1c;stroke-width:1.29999995;stroke-linecap:round;stroke-miterlimit:4;stroke-dasharray:none;stroke-opacity:1"
   id="path321"
   d="M 205.778,294.5 C 204.127,294.911 202.516,295.576 200.778,295.5"
   clip-rule="evenodd" />
		<path
   style="fill:none;fill-rule:evenodd;stroke:#1c1c1c;stroke-width:1.29999995;stroke-linecap:round;stroke-miterlimit:4;stroke-dasharray:none;stroke-opacity:1"
   id="path323"
   d="M 56.779,277.5 C 50.072,279.404 42.659,276.767 35.779,278.5"
   clip-rule="evenodd" />
		<path
   style="fill:none;fill-rule:evenodd;stroke:#1c1c1c;stroke-width:1.29999995;stroke-linecap:round;stroke-miterlimit:4;stroke-dasharray:none;stroke-opacity:1"
   id="path325"
   d="M 135.779,353.5 C 135.277,351.833 135.398,350.166 134.779,348.5"
   clip-rule="evenodd" />
		<path
   style="fill:none;fill-rule:evenodd;stroke:#1c1c1c;stroke-width:1.29999995;stroke-linecap:round;stroke-miterlimit:4;stroke-dasharray:none;stroke-opacity:1"
   id="path327"
   d="M 126.779,347 C 128.22,349.003 130.903,348.542 132.779,347.5"
   clip-rule="evenodd" />
		<path
   style="fill:none;fill-rule:evenodd;stroke:#1c1c1c;stroke-width:1.29999995;stroke-linecap:round;stroke-miterlimit:4;stroke-dasharray:none;stroke-opacity:1"
   id="path329"
   d="M 130.779,335.5 C 133.008,335.923 135.303,336.619 136.779,338.5"
   clip-rule="evenodd" />
		<path
   style="fill:none;fill-rule:evenodd;stroke:#1c1c1c;stroke-width:1.29999995;stroke-linecap:round;stroke-miterlimit:4;stroke-dasharray:none;stroke-opacity:1"
   id="path331"
   d="M 158.779,324.5 C 159.775,323.025 161.581,322.711 162.779,321.5"
   clip-rule="evenodd" />
		<path
   style="fill:none;fill-rule:evenodd;stroke:#1c1c1c;stroke-width:1.29999995;stroke-linecap:round;stroke-miterlimit:4;stroke-dasharray:none;stroke-opacity:1"
   id="path333"
   d="M 171.779,334.5 C 172.433,332.888 174.333,332.127 174.779,330.5"
   clip-rule="evenodd" />
		<path
   style="fill:none;fill-rule:evenodd;stroke:#1c1c1c;stroke-width:1.29999995;stroke-linecap:round;stroke-miterlimit:4;stroke-dasharray:none;stroke-opacity:1"
   id="path335"
   d="M 174.779,336.5 C 176.68,334.89 177.486,334.013 178.779,333.5"
   clip-rule="evenodd" />
		<path
   style="fill:none;fill-rule:evenodd;stroke:#1c1c1c;stroke-width:1.29999995;stroke-linecap:round;stroke-miterlimit:4;stroke-dasharray:none;stroke-opacity:1"
   id="path337"
   d="M 170.779,346.5 C 170.362,347.257 169.73,348.288 168.779,349.5"
   clip-rule="evenodd" />
		<path
   style="fill:none;fill-rule:evenodd;stroke:#1c1c1c;stroke-width:1.29999995;stroke-linecap:round;stroke-miterlimit:4;stroke-dasharray:none;stroke-opacity:1"
   id="path339"
   d="M 211.779,322.5 C 208.939,321.686 206.873,324.127 204.203,323.966 C 203.204,323.59 202.406,322.398 201.779,321.5"
   clip-rule="evenodd" />
		<path
   style="fill:none;fill-rule:evenodd;stroke:#1c1c1c;stroke-width:1.29999995;stroke-linecap:round;stroke-miterlimit:4;stroke-dasharray:none;stroke-opacity:1"
   id="path341"
   d="M 140.779,351.5 C 141.052,350.833 141.169,350.166 141.279,349.5"
   clip-rule="evenodd" />
	</g>
<path
   clip-rule="evenodd"
   d="M 298.279,335 C 298.721,329.442 306.667,331.388 308.279,327 C 307.116,325.162 302.971,326.307 304.279,322 C 304.324,318.712 308.553,319.607 308.279,316 C 310.517,312.932 306.435,304.446 312.279,303 C 318.006,303.272 314.155,313.123 315.279,318 C 330.027,317.414 347.739,319.793 358.279,315 C 360.99,316.24 360.767,318.859 364.279,317 C 364.279,316.666 364.279,316.333 364.279,316 L 365.779,316.5 L 367.279,317 C 371.078,317.91 368.01,321.019 368.279,324 L 368.779,325 L 369.279,326 C 368.468,326.189 368.282,327.003 367.279,327 C 367.279,328 367.278,329 367.279,330 C 370.827,330.582 376.833,332.468 379.279,331 C 379.279,329.666 379.279,328.333 379.279,327 C 375.509,327.769 374.499,325.779 371.279,326 L 371.779,324.5 L 370.279,324 C 371.995,321.444 369.133,320.499 371.279,319 C 379.178,321.232 379.084,315.472 383.279,314 C 383.915,322.606 404.12,319.207 409.279,317 C 409.954,312.675 406.998,304.719 413.279,306 C 416.141,308.137 411.891,317.387 417.279,317 C 421.516,316.903 416.766,307.821 422.279,309 C 423.825,310.453 423.159,314.119 423.279,317 L 421.779,318.166 L 422.279,320 C 420.578,319.632 420.391,320.779 420.279,322 C 421.989,322.043 422.869,321.256 423.279,320 L 424.779,320.5 L 425.279,319 C 439.435,319.509 455.728,317.883 468.279,320 C 457.87539,334.11363 442.67982,342.09464 423.34238,344.21993 C 417.13791,344.90183 409.53562,342.06663 402.79434,342.43554 C 386.95347,343.3024 370.36076,344.48205 355.18076,343.47427 C 335.63912,342.17693 318.43863,341.33884 308.19704,340.40727 C 302.0992,339.85262 298.4683,335.12514 298.279,335 z M 338.279,323 C 331.557,322.963 324.115,323.027 318.279,323 C 317.275,322.996 317.089,323.81 316.279,324 C 316.235,325.376 316.75,326.195 317.279,327 C 331.362,325.519 345.29,330.876 354.279,326 C 352.416,320.802 344.467,323.033 338.279,323 z M 360.279,328 C 360.945,328 361.612,328 362.279,328 C 362.334,326.721 363.56,326.614 363.279,325 C 362.279,325 361.279,325 360.279,325 C 360.278,326 360.279,327 360.279,328 z M 386.279,328 C 386.279,328.999 386.279,330 386.279,331 C 389.468,332.422 394.676,332.334 399.279,332 C 402.872,331.738 408.518,331.706 409.279,329 C 405.545,325.229 391.622,326.889 386.279,328 z M 423.279,328 C 423.279,328.999 423.279,330 423.279,331 C 429.241,334.704 438.479,335.132 445.279,338 C 448.39,333.444 456.106,333.494 457.279,327 C 444.301,327.47 433.044,326.12 423.279,328 z M 415.279,329 C 415.279,329.666 415.279,330.333 415.279,331 C 415.888,331.056 416.463,331.148 416.279,332 C 416.945,332 417.612,332 418.279,332 C 418.335,331.39 418.427,330.815 419.279,331 C 419.279,330.333 419.279,329.666 419.279,329 C 418.669,328.942 418.094,328.85 418.279,328 C 417.612,328 416.945,328 416.279,328 C 416.221,328.609 416.128,329.184 415.279,329 z M 342.279,332 C 338.337,331.876 333.701,331.79 330.279,332 C 325.424,332.297 317.706,331.694 316.279,336 C 320.511,339.452 328.838,338.071 335.279,338 C 341.823,337.927 351.022,339.53 353.279,335 C 352.793,330.054 346.034,332.117 342.279,332 z M 359.279,338 C 359.945,338 360.612,338 361.279,338 C 361.279,337.333 361.279,336.666 361.279,336 C 360.612,336 359.945,336 359.279,336 C 359.279,336.666 359.279,337.333 359.279,338 z M 378.279,339 C 376.339,335.939 370.968,336.31 366.279,336 C 364.865,342.28 378.219,343.305 378.279,339 z M 386.279,340 C 386.391,341.22 386.578,342.367 388.279,342 C 389.903,341.591 403.269,344.349 403.279,339 C 397.778,339.499 390.176,337.897 386.279,340 z "
   id="path7192"
   style="fill:url(#linearGradient8085);fill-rule:evenodd;stroke:#1c1c1c;stroke-width:1.29999995;stroke-miterlimit:4;stroke-dasharray:none;stroke-opacity:1;fill-opacity:1.0"
   sodipodi:nodetypes="cccccccccccccccccccccccccccccccccccssssccscccccccccccscccccccccccccccccscscccccccccccccc" /><path
   sodipodi:nodetypes="ccccccccccccccccccccccccccccccccccccccccccccccc"
   clip-rule="evenodd"
   d="M 134.279,353 L 135.779,353.5 L 136.279,352 C 137.089,352.189 137.276,353.003 138.279,353 C 139.139,352.192 138.873,350.261 140.279,350 L 140.779,351.5 L 142.279,351 C 142.279,351.333 142.279,351.666 142.279,352 C 146.05,352.583 157.734,353.904 160.279,348 C 157.104,342.452 145.96,346.997 142.279,350 L 141.279,349.5 L 140.279,349 C 139.469,348.81 139.282,347.996 138.279,348 C 138.251,348.972 137.055,348.775 136.279,349 L 134.779,348.5 L 134.279,350 C 133.469,349.81 133.282,348.996 132.279,349 L 132.779,347.5 L 131.279,347 C 133.359,343.368 132.456,340.701 132.279,339 C 133.279,339 134.279,338.999 135.279,339 C 135.279,338.666 135.279,338.333 135.279,338 L 136.779,338.5 L 136.279,337 C 138.571,336.624 137.612,333 139.279,332 C 145.321,332.376 149.404,330.791 152.279,328 C 153.272,325.225 146.597,325.171 150.279,323 C 153.748,322.863 151.88,328.065 155.279,328 C 157.333,327.055 156.127,322.848 159.279,323 L 158.779,324.5 L 160.279,325 C 160.97,327.496 162.946,323.144 165.279,324 C 161.017,327.921 167.799,326.693 165.279,332 C 168.747,331.197 169.123,333.489 172.279,333 L 171.779,334.5 L 173.279,334 C 173.306,334.972 174.503,334.775 175.279,335 L 174.779,336.5 L 176.279,336 C 177.646,344.366 167.687,341.407 167.279,348 C 167.946,348 168.612,348 169.279,348 L 168.779,349.5 L 170.279,349 C 170.279,349.666 170.279,350.333 170.279,351 C 172.835,352.25 174.648,351.534 178.279,350 C 177.35526,342.14998 182.279,344.88083 182.279,351 C 182.09948,349.89386 181.16808,351.72568 134.279,353 z "
   id="path8087"
   style="fill:url(#radialGradient8980);fill-rule:evenodd;stroke:#1c1c1c;stroke-width:1.29999995;stroke-miterlimit:4;stroke-dasharray:none;stroke-opacity:1;fill-opacity:1.0" /><path
   sodipodi:nodetypes="cccccccccccccccccccccccccc"
   clip-rule="evenodd"
   d="M 178.279,350 C 178.826,348.547 177.11,344.831 179.279,345 L 180.446,346.5 L 182.279,346 C 182.279,347.666 182.279,349.333 182.279,351 C 186.078,350.799 189.394,350.114 192.279,349 C 192.983,345.162 196.908,334.019 190.279,331 C 189.108,332.495 189.035,335.09 187.279,336 L 186.112,334.5 L 184.279,335 C 183.358,327.172 184.844,326.283 185.279,319 C 183.946,319 182.612,319 181.279,319 L 181.779,317.5 L 180.279,318 C 180.807,314.527 182.987,312.708 184.279,310 C 186.771,310.841 189.636,311.309 193.279,311 C 195.727,308.781 196.846,305.233 202.279,306 C 205.584,310.76 200.488,314.859 203.279,322 L 201.779,321.5 L 201.279,323 C 200.474,322.471 199.655,321.956 198.279,322 C 197.049,331.751 200.174,337.714 197.279,348 C 200.87,347.591 205.026,347.746 206.279,345 L 207.279,345.5 L 208.279,346 C 204.79726,345.94185 179.66169,352.39942 178.279,350 z "
   id="path13411"
   style="fill:#3e3e3e;fill-rule:evenodd;stroke:#1c1c1c;stroke-width:1.29999995;stroke-miterlimit:4;stroke-dasharray:none;stroke-opacity:1;fill-opacity:1" /></svg>